<?xml version="1.0" encoding="UTF-8" standalone="no"?>
<!DOCTYPE svg PUBLIC "-//W3C//DTD SVG 1.1//EN" "http://www.w3.org/Graphics/SVG/1.1/DTD/svg11.dtd">
<!-- 由 Microsoft Visio, SVG Export 生成 1.svg Page-1 -->
<svg xmlns="http://www.w3.org/2000/svg" xmlns:xlink="http://www.w3.org/1999/xlink" xmlns:ev="http://www.w3.org/2001/xml-events"
		xmlns:v="http://schemas.microsoft.com/visio/2003/SVGExtensions/" width="11.6929in" height="8.26772in"
		viewBox="0 0 841.89 595.276" xml:space="preserve" color-interpolation-filters="sRGB" class="st11">
	<v:documentProperties v:langID="2052" v:metric="true" v:viewMarkup="false">
		<v:userDefs>
			<v:ud v:nameU="msvSubprocessMaster" v:prompt="" v:val="VT4(Rectangle)"/>
			<v:ud v:nameU="msvNoAutoConnect" v:val="VT0(1):26"/>
			<v:ud v:nameU="msvConvertTheme"/>
		</v:userDefs>
	</v:documentProperties>

	<style type="text/css">
	<![CDATA[
		.st1 {visibility:visible}
		.st2 {fill:none;filter:url(#filter_2);stroke:#5b9bd5;stroke-opacity:0.22}
		.st3 {stroke:#000000;stroke-width:0.25}
		.st4 {fill:none;stroke:none;stroke-width:0.25}
		.st5 {fill:#000000;font-family:微软雅黑;font-size:1.00001em}
		.st6 {fill:#000000;font-family:Consolas;font-size:1.00001em}
		.st7 {marker-end:url(#mrkr4-31);stroke:#000000;stroke-linecap:round;stroke-linejoin:round;stroke-width:0.25}
		.st8 {fill:#000000;fill-opacity:1;stroke:#000000;stroke-opacity:1;stroke-width:0.090252707581227}
		.st9 {font-size:1em}
		.st10 {font-family:Consolas;font-size:1em}
		.st11 {fill:none;fill-rule:evenodd;font-size:12px;overflow:visible;stroke-linecap:square;stroke-miterlimit:3}
	]]>
	</style>

	<defs id="Markers">
		<g id="lend4">
			<path d="M 2 1 L 0 0 L 2 -1 L 2 1 " style="stroke:none"/>
		</g>
		<marker id="mrkr4-31" class="st8" v:arrowType="4" v:arrowSize="2" v:setback="22.16" refX="-22.16" orient="auto"
				markerUnits="strokeWidth" overflow="visible">
			<use xlink:href="#lend4" transform="scale(-11.08,-11.08) "/>
		</marker>
	</defs>
	<defs id="Filters">
		<filter id="filter_2">
			<feGaussianBlur stdDeviation="2"/>
		</filter>
	</defs>
	<g v:mID="0" v:index="1" v:groupContext="foregroundPage">
		<v:userDefs>
			<v:ud v:nameU="msvThemeOrder" v:val="VT0(0):26"/>
		</v:userDefs>
		<title>页-1</title>
		<v:pageProperties v:drawingScale="0.0393701" v:pageScale="0.0393701" v:drawingUnits="24" v:shadowOffsetX="8.50394"
				v:shadowOffsetY="-8.50394"/>
		<v:layer v:name="连接线" v:index="0"/>
		<g id="shape2-1" v:mID="2" v:groupContext="shape" transform="translate(648.123,-296.647)">
			<title>右括号</title>
			<v:userDefs>
				<v:ud v:nameU="visVersion" v:prompt="" v:val="VT0(15):26"/>
			</v:userDefs>
			<g id="shadow2-2" v:groupContext="shadow" v:shadowOffsetX="0.3456" v:shadowOffsetY="-1.9728" v:shadowType="1"
					transform="matrix(1,0,0,1,0.3456,1.9728)" class="st1">
				<path d="M0 595.28 A42.8999 38.1386 -180 0 0 16.02 572.49 L16.02 481.33 L32.04 481.33 L16.02 481.33 L16.02 390.17
							 A42.8999 38.1386 -180 0 0 0 367.38" class="st2"/>
			</g>
			<path d="M0 595.28 A42.8999 38.1386 -180 0 0 16.02 572.49 L16.02 481.33 L32.04 481.33 L16.02 481.33 L16.02 390.17 A42.8999
						 38.1386 -180 0 0 0 367.38" class="st3"/>
		</g>
		<g id="shape3-9" v:mID="3" v:groupContext="shape" transform="translate(648.123,-117.155)">
			<title>右括号.3</title>
			<v:userDefs>
				<v:ud v:nameU="visVersion" v:prompt="" v:val="VT0(15):26"/>
			</v:userDefs>
			<g id="shadow3-10" v:groupContext="shadow" v:shadowOffsetX="0.3456" v:shadowOffsetY="-1.9728" v:shadowType="1"
					transform="matrix(1,0,0,1,0.3456,1.9728)" class="st1">
				<path d="M0 595.28 A42.8999 28.5492 -180 0 0 16.02 578.22 L16.02 509.98 L32.04 509.98 L16.02 509.98 L16.02 441.74
							 A42.8999 28.5492 -180 0 0 0 424.68" class="st2"/>
			</g>
			<path d="M0 595.28 A42.8999 28.5492 -180 0 0 16.02 578.22 L16.02 509.98 L32.04 509.98 L16.02 509.98 L16.02 441.74 A42.8999
						 28.5492 -180 0 0 0 424.68" class="st3"/>
		</g>
		<g id="shape6-17" v:mID="6" v:groupContext="shape" transform="translate(163.316,-543.198)">
			<title>工作表.6</title>
			<desc>应用进程</desc>
			<v:textBlock v:margins="rect(4,4,4,4)" v:tabSpace="42.5197"/>
			<v:textRect cx="85.9123" cy="584.919" width="171.83" height="20.7136"/>
			<rect x="0" y="574.562" width="171.825" height="20.7136" class="st4"/>
			<text x="61.91" y="588.59" class="st5" v:langID="2052"><v:paragraph v:horizAlign="1"/><v:tabList/>应用进程</text>		</g>
		<g id="shape7-20" v:mID="7" v:groupContext="shape" transform="translate(482.102,-546.563)">
			<title>工作表.7</title>
			<desc>内核</desc>
			<v:textBlock v:margins="rect(4,4,4,4)" v:tabSpace="42.5197"/>
			<v:textRect cx="85.9123" cy="584.919" width="171.83" height="20.7136"/>
			<rect x="0" y="574.562" width="171.825" height="20.7136" class="st4"/>
			<text x="73.91" y="588.59" class="st5" v:langID="2052"><v:paragraph v:horizAlign="1"/><v:tabList/>内核</text>		</g>
		<g id="shape8-23" v:mID="8" v:groupContext="shape" transform="translate(182.934,-500.466)">
			<title>工作表.8</title>
			<desc>recvfrom</desc>
			<v:textBlock v:margins="rect(4,4,4,4)" v:tabSpace="42.5197"/>
			<v:textRect cx="66.4904" cy="584.919" width="132.99" height="20.7136"/>
			<rect x="0" y="574.562" width="132.981" height="20.7136" class="st4"/>
			<text x="40.1" y="588.52" class="st6" v:langID="2052"><v:paragraph v:horizAlign="1"/><v:tabList/>recvfrom</text>		</g>
		<g id="shape10-26" v:mID="10" v:groupContext="shape" v:layerMember="0" transform="translate(315.915,-504.54)">
			<title>动态连接线</title>
			<v:userDefs>
				<v:ud v:nameU="msvThemeColors" v:val="VT0(254):26"/>
			</v:userDefs>
			<path d="M0 588.78 L165.89 587.64" class="st7"/>
		</g>
		<g id="shape11-32" v:mID="11" v:groupContext="shape" transform="translate(311.274,-521.832)">
			<title>工作表.11</title>
			<desc>系统调用</desc>
			<v:textBlock v:margins="rect(4,4,4,4)" v:tabSpace="42.5197"/>
			<v:textRect cx="85.9123" cy="584.919" width="171.83" height="20.7136"/>
			<rect x="0" y="574.562" width="171.825" height="20.7136" class="st4"/>
			<text x="61.91" y="588.59" class="st5" v:langID="2052"><v:paragraph v:horizAlign="1"/><v:tabList/>系统调用</text>		</g>
		<g id="shape12-35" v:mID="12" v:groupContext="shape" transform="translate(503.927,-308.787)">
			<title>工作表.12</title>
			<desc>数据报准备好</desc>
			<v:textBlock v:margins="rect(4,4,4,4)" v:tabSpace="42.5197"/>
			<v:textRect cx="66.4904" cy="584.919" width="132.99" height="20.7136"/>
			<rect x="0" y="574.562" width="132.981" height="20.7136" class="st4"/>
			<text x="30.49" y="588.59" class="st5" v:langID="2052"><v:paragraph v:horizAlign="1"/><v:tabList/>数据报准备好</text>		</g>
		<g id="shape13-38" v:mID="13" v:groupContext="shape" transform="translate(190.061,-134.203)">
			<title>工作表.13</title>
			<desc>处理数据报</desc>
			<v:textBlock v:margins="rect(4,4,4,4)" v:tabSpace="42.5197"/>
			<v:textRect cx="66.4904" cy="584.919" width="132.99" height="20.7136"/>
			<rect x="0" y="574.562" width="132.981" height="20.7136" class="st4"/>
			<text x="36.49" y="588.59" class="st5" v:langID="2052"><v:paragraph v:horizAlign="1"/><v:tabList/>处理数据报</text>		</g>
		<g id="shape14-41" v:mID="14" v:groupContext="shape" transform="translate(505.173,-267.037)">
			<title>工作表.14</title>
			<desc>拷贝数据报</desc>
			<v:textBlock v:margins="rect(4,4,4,4)" v:tabSpace="42.5197"/>
			<v:textRect cx="66.4904" cy="584.919" width="132.99" height="20.7136"/>
			<rect x="0" y="574.562" width="132.981" height="20.7136" class="st4"/>
			<text x="36.49" y="588.59" class="st5" v:langID="2052"><v:paragraph v:horizAlign="1"/><v:tabList/>拷贝数据报</text>		</g>
		<g id="shape15-44" v:mID="15" v:groupContext="shape" transform="translate(499.566,-144.774)">
			<title>工作表.15</title>
			<desc>拷贝完成</desc>
			<v:textBlock v:margins="rect(4,4,4,4)" v:tabSpace="42.5197"/>
			<v:textRect cx="66.4904" cy="584.919" width="132.99" height="20.7136"/>
			<rect x="0" y="574.562" width="132.981" height="20.7136" class="st4"/>
			<text x="42.49" y="588.59" class="st5" v:langID="2052"><v:paragraph v:horizAlign="1"/><v:tabList/>拷贝完成</text>		</g>
		<g id="shape17-47" v:mID="17" v:groupContext="shape" v:layerMember="0" transform="translate(558.062,-259.018)">
			<title>动态连接线.17</title>
			<v:userDefs>
				<v:ud v:nameU="msvThemeColors" v:val="VT0(254):26"/>
			</v:userDefs>
			<path d="M6.39 595.28 L7.69 678.23" class="st7"/>
		</g>
		<g id="shape18-52" v:mID="18" v:groupContext="shape" v:layerMember="0" transform="translate(499.566,-163.206)">
			<title>动态连接线.18</title>
			<v:userDefs>
				<v:ud v:nameU="msvThemeColors" v:val="VT0(254):26"/>
			</v:userDefs>
			<path d="M0 602.22 L-170.7 602.5" class="st7"/>
		</g>
		<g id="shape19-57" v:mID="19" v:groupContext="shape" transform="translate(325.391,-164.91)">
			<title>工作表.19</title>
			<desc>返回成功指示</desc>
			<v:textBlock v:margins="rect(4,4,4,4)" v:tabSpace="42.5197"/>
			<v:textRect cx="85.9123" cy="584.919" width="171.83" height="20.7136"/>
			<rect x="0" y="574.562" width="171.825" height="20.7136" class="st4"/>
			<text x="49.91" y="588.59" class="st5" v:langID="2052"><v:paragraph v:horizAlign="1"/><v:tabList/>返回成功指示</text>		</g>
		<g id="shape20-60" v:mID="20" v:groupContext="shape" transform="translate(648.123,-400.239)">
			<title>工作表.20</title>
			<desc>等待数据</desc>
			<v:textBlock v:margins="rect(4,4,4,4)" v:tabSpace="42.5197"/>
			<v:textRect cx="66.4904" cy="584.919" width="132.99" height="20.7136"/>
			<rect x="0" y="574.562" width="132.981" height="20.7136" class="st4"/>
			<text x="42.49" y="588.59" class="st5" v:langID="2052"><v:paragraph v:horizAlign="1"/><v:tabList/>等待数据</text>		</g>
		<g id="shape21-63" v:mID="21" v:groupContext="shape" transform="translate(681.413,-192.096)">
			<title>工作表.21</title>
			<desc>将数据从内核拷贝到用户空间</desc>
			<v:textBlock v:margins="rect(4,4,4,4)" v:tabSpace="42.5197"/>
			<v:textRect cx="66.4904" cy="584.919" width="132.99" height="20.7136"/>
			<rect x="0" y="574.562" width="132.981" height="20.7136" class="st4"/>
			<text x="6.49" y="581.18" class="st5" v:langID="2052"><v:paragraph v:horizAlign="1"/><v:tabList/>将数据从内核拷贝到用<tspan
						x="48.49" dy="1.218em" class="st9">户空间</tspan></text>		</g>
		<g id="shape22-67" v:mID="22" v:groupContext="shape" transform="translate(324.946,-28.4774)">
			<title>工作表.22</title>
			<desc>阻塞 I/O 模型</desc>
			<v:textBlock v:margins="rect(4,4,4,4)" v:tabSpace="42.5197"/>
			<v:textRect cx="85.9123" cy="584.919" width="171.83" height="20.7136"/>
			<rect x="0" y="574.562" width="171.825" height="20.7136" class="st4"/>
			<text x="45.42" y="588.59" class="st5" v:langID="2052"><v:paragraph v:horizAlign="1"/><v:tabList/>阻塞<tspan class="st10"> </tspan><tspan
						class="st10">I</tspan><tspan class="st10">/</tspan><tspan class="st10">O </tspan>模型</text>		</g>
		<g id="shape36-74" v:mID="36" v:groupContext="shape" transform="translate(158.329,-126.908)">
			<title>左括号.36</title>
			<v:userDefs>
				<v:ud v:nameU="visVersion" v:prompt="" v:val="VT0(15):26"/>
			</v:userDefs>
			<g id="shadow36-75" v:groupContext="shadow" v:shadowOffsetX="0.3456" v:shadowOffsetY="-1.9728" v:shadowType="1"
					transform="matrix(1,0,0,1,0.3456,1.9728)" class="st1">
				<path d="M32.04 595.28 A42.8999 66.3261 0 0 1 16.02 555.64 L16.02 397.11 L0 397.11 L16.02 397.11 L16.02 238.58 A42.8999
							 66.3261 0 0 1 32.04 198.94" class="st2"/>
			</g>
			<path d="M32.04 595.28 A42.8999 66.3261 0 0 1 16.02 555.64 L16.02 397.11 L0 397.11 L16.02 397.11 L16.02 238.58 A42.8999
						 66.3261 0 0 1 32.04 198.94" class="st3"/>
		</g>
		<g id="shape37-82" v:mID="37" v:groupContext="shape" transform="translate(26.3622,-314.717)">
			<title>工作表.37</title>
			<desc>进程阻塞于recvfrom调用</desc>
			<v:textBlock v:margins="rect(4,4,4,4)" v:tabSpace="42.5197"/>
			<v:textRect cx="65.3668" cy="584.919" width="130.74" height="20.7136"/>
			<rect x="0" y="574.562" width="130.734" height="20.7136" class="st4"/>
			<text x="8.98" y="581.25" class="st5" v:langID="2052"><v:paragraph v:horizAlign="1"/><v:tabList/>进程阻塞于<tspan
						class="st10">recvfrom</tspan><tspan x="53.37" dy="1.223em" class="st9">调用</tspan></text>		</g>
		<g id="shape47-87" v:mID="47" v:groupContext="shape" transform="translate(502.616,-493.881)">
			<title>工作表.47</title>
			<desc>无数据报准备好</desc>
			<v:textBlock v:margins="rect(4,4,4,4)" v:tabSpace="42.5197"/>
			<v:textRect cx="66.4904" cy="584.919" width="132.99" height="20.7136"/>
			<rect x="0" y="574.562" width="132.981" height="20.7136" class="st4"/>
			<text x="24.49" y="588.59" class="st5" v:langID="2052"><v:paragraph v:horizAlign="1"/><v:tabList/>无数据报准备好</text>		</g>
		<g id="shape48-90" v:mID="48" v:groupContext="shape" v:layerMember="0" transform="translate(558.489,-479.203)">
			<title>动态连接线.48</title>
			<v:userDefs>
				<v:ud v:nameU="msvThemeColors" v:val="VT0(254):26"/>
			</v:userDefs>
			<path d="M6.61 595.28 L7.53 730.65" class="st7"/>
		</g>
	</g>
</svg>
