<?xml version="1.0" encoding="UTF-8" standalone="no"?>
<!DOCTYPE svg PUBLIC "-//W3C//DTD SVG 1.1//EN" "http://www.w3.org/Graphics/SVG/1.1/DTD/svg11.dtd">
<!-- 由 Microsoft Visio, SVG Export 生成 2.svg Page-1 -->
<svg xmlns="http://www.w3.org/2000/svg" xmlns:xlink="http://www.w3.org/1999/xlink" xmlns:ev="http://www.w3.org/2001/xml-events"
		xmlns:v="http://schemas.microsoft.com/visio/2003/SVGExtensions/" width="11.6929in" height="8.26772in"
		viewBox="0 0 841.89 595.276" xml:space="preserve" color-interpolation-filters="sRGB" class="st13">
	<v:documentProperties v:langID="2052" v:metric="true" v:viewMarkup="false">
		<v:userDefs>
			<v:ud v:nameU="msvSubprocessMaster" v:prompt="" v:val="VT4(Rectangle)"/>
			<v:ud v:nameU="msvNoAutoConnect" v:val="VT0(1):26"/>
			<v:ud v:nameU="msvConvertTheme"/>
		</v:userDefs>
	</v:documentProperties>

	<style type="text/css">
	<![CDATA[
		.st1 {visibility:visible}
		.st2 {fill:none;filter:url(#filter_2);stroke:#5b9bd5;stroke-opacity:0.22}
		.st3 {stroke:#000000;stroke-width:0.25}
		.st4 {fill:none;stroke:none;stroke-width:0.25}
		.st5 {fill:#000000;font-family:微软雅黑;font-size:1.00001em}
		.st6 {font-family:Consolas;font-size:1em}
		.st7 {font-size:1em}
		.st8 {fill:#000000;font-family:Consolas;font-size:1.00001em}
		.st9 {marker-end:url(#mrkr4-48);stroke:#000000;stroke-linecap:round;stroke-linejoin:round;stroke-width:0.25}
		.st10 {fill:#000000;fill-opacity:1;stroke:#000000;stroke-opacity:1;stroke-width:0.090252707581227}
		.st11 {fill:none;stroke:none;stroke-linecap:round;stroke-linejoin:round;stroke-width:0.75}
		.st12 {fill:#000000;font-family:Consolas;font-size:12}
		.st13 {fill:none;fill-rule:evenodd;font-size:12px;overflow:visible;stroke-linecap:square;stroke-miterlimit:3}
	]]>
	</style>

	<defs id="Markers">
		<g id="lend4">
			<path d="M 2 1 L 0 0 L 2 -1 L 2 1 " style="stroke:none"/>
		</g>
		<marker id="mrkr4-48" class="st10" v:arrowType="4" v:arrowSize="2" v:setback="22.16" refX="-22.16" orient="auto"
				markerUnits="strokeWidth" overflow="visible">
			<use xlink:href="#lend4" transform="scale(-11.08,-11.08) "/>
		</marker>
	</defs>
	<defs id="Filters">
		<filter id="filter_2">
			<feGaussianBlur stdDeviation="2"/>
		</filter>
	</defs>
	<g v:mID="0" v:index="1" v:groupContext="foregroundPage">
		<v:userDefs>
			<v:ud v:nameU="msvThemeOrder" v:val="VT0(0):26"/>
		</v:userDefs>
		<title>页-1</title>
		<v:pageProperties v:drawingScale="0.0393701" v:pageScale="0.0393701" v:drawingUnits="24" v:shadowOffsetX="8.50394"
				v:shadowOffsetY="-8.50394"/>
		<v:layer v:name="连接线" v:index="0"/>
		<g id="shape1-1" v:mID="1" v:groupContext="shape" transform="translate(185.064,-116.344)">
			<title>左括号</title>
			<v:userDefs>
				<v:ud v:nameU="visVersion" v:prompt="" v:val="VT0(15):26"/>
			</v:userDefs>
			<g id="shadow1-2" v:groupContext="shadow" v:shadowOffsetX="0.3456" v:shadowOffsetY="-1.9728" v:shadowType="1"
					transform="matrix(1,0,0,1,0.3456,1.9728)" class="st1">
				<path d="M30.81 595.28 A41.252 67.9055 0 0 1 15.41 554.7 L15.41 392.39 L0 392.39 L15.41 392.39 L15.41 230.08 A41.252
							 67.9055 0 0 1 30.81 189.51" class="st2"/>
			</g>
			<path d="M30.81 595.28 A41.252 67.9055 0 0 1 15.41 554.7 L15.41 392.39 L0 392.39 L15.41 392.39 L15.41 230.08 A41.252
						 67.9055 0 0 1 30.81 189.51" class="st3"/>
		</g>
		<g id="shape2-9" v:mID="2" v:groupContext="shape" transform="translate(654.511,-296.637)">
			<title>右括号</title>
			<v:userDefs>
				<v:ud v:nameU="visVersion" v:prompt="" v:val="VT0(15):26"/>
			</v:userDefs>
			<g id="shadow2-10" v:groupContext="shadow" v:shadowOffsetX="0.3456" v:shadowOffsetY="-1.9728" v:shadowType="1"
					transform="matrix(1,0,0,1,0.3456,1.9728)" class="st1">
				<path d="M0 595.28 A41.252 38.2989 -180 0 0 15.41 572.39 L15.41 480.85 L30.81 480.85 L15.41 480.85 L15.41 389.31
							 A41.252 38.2989 -180 0 0 -0 366.42" class="st2"/>
			</g>
			<path d="M0 595.28 A41.252 38.2989 -180 0 0 15.41 572.39 L15.41 480.85 L30.81 480.85 L15.41 480.85 L15.41 389.31 A41.252
						 38.2989 -180 0 0 -0 366.42" class="st3"/>
		</g>
		<g id="shape3-17" v:mID="3" v:groupContext="shape" transform="translate(654.511,-116.39)">
			<title>右括号.3</title>
			<v:userDefs>
				<v:ud v:nameU="visVersion" v:prompt="" v:val="VT0(15):26"/>
			</v:userDefs>
			<g id="shadow3-18" v:groupContext="shadow" v:shadowOffsetX="0.3456" v:shadowOffsetY="-1.9728" v:shadowType="1"
					transform="matrix(1,0,0,1,0.3456,1.9728)" class="st1">
				<path d="M0 595.28 A41.252 28.6692 -180 0 0 15.41 578.14 L15.41 509.62 L30.81 509.62 L15.41 509.62 L15.41 441.09
							 A41.252 28.6692 -180 0 0 -0 423.96" class="st2"/>
			</g>
			<path d="M0 595.28 A41.252 28.6692 -180 0 0 15.41 578.14 L15.41 509.62 L30.81 509.62 L15.41 509.62 L15.41 441.09 A41.252
						 28.6692 -180 0 0 -0 423.96" class="st3"/>
		</g>
		<g id="shape5-25" v:mID="5" v:groupContext="shape" transform="translate(26.3622,-308.829)">
			<title>工作表.5</title>
			<desc>进程反复调用 recvfrom 等待返回成功指示轮询</desc>
			<v:textBlock v:margins="rect(4,4,4,4)" v:tabSpace="42.5197"/>
			<v:textRect cx="82.6119" cy="584.875" width="165.23" height="20.8007"/>
			<rect x="0" y="574.475" width="165.224" height="20.8007" class="st4"/>
			<text x="7.62" y="581.21" class="st5" v:langID="2052"><v:paragraph v:horizAlign="1"/><v:tabList/>进程反复调用<tspan
						class="st6"> </tspan><tspan class="st6">recvfrom </tspan>等<tspan x="16.61" dy="1.223em" class="st7">待返回成功指示</tspan>（轮询）</text>		</g>
		<g id="shape6-31" v:mID="6" v:groupContext="shape" transform="translate(188.328,-544.225)">
			<title>工作表.6</title>
			<desc>应用进程</desc>
			<v:textBlock v:margins="rect(4,4,4,4)" v:tabSpace="42.5197"/>
			<v:textRect cx="82.6119" cy="584.875" width="165.23" height="20.8007"/>
			<rect x="0" y="574.475" width="165.224" height="20.8007" class="st4"/>
			<text x="58.61" y="588.55" class="st5" v:langID="2052"><v:paragraph v:horizAlign="1"/><v:tabList/>应用进程</text>		</g>
		<g id="shape7-34" v:mID="7" v:groupContext="shape" transform="translate(494.867,-547.603)">
			<title>工作表.7</title>
			<desc>内核</desc>
			<v:textBlock v:margins="rect(4,4,4,4)" v:tabSpace="42.5197"/>
			<v:textRect cx="82.6119" cy="584.875" width="165.23" height="20.8007"/>
			<rect x="0" y="574.475" width="165.224" height="20.8007" class="st4"/>
			<text x="70.61" y="588.55" class="st5" v:langID="2052"><v:paragraph v:horizAlign="1"/><v:tabList/>内核</text>		</g>
		<g id="shape8-37" v:mID="8" v:groupContext="shape" transform="translate(207.192,-501.313)">
			<title>工作表.8</title>
			<desc>recvfrom</desc>
			<v:textBlock v:margins="rect(4,4,4,4)" v:tabSpace="42.5197"/>
			<v:textRect cx="63.9361" cy="584.875" width="127.88" height="20.8007"/>
			<rect x="0" y="574.475" width="127.872" height="20.8007" class="st4"/>
			<text x="37.54" y="588.48" class="st8" v:langID="2052"><v:paragraph v:horizAlign="1"/><v:tabList/>recvfrom</text>		</g>
		<g id="shape9-40" v:mID="9" v:groupContext="shape" transform="translate(511.232,-488.641)">
			<title>工作表.9</title>
			<desc>无数据报准备好</desc>
			<v:textBlock v:margins="rect(4,4,4,4)" v:tabSpace="42.5197"/>
			<v:textRect cx="63.9361" cy="584.875" width="127.88" height="20.8007"/>
			<rect x="0" y="574.475" width="127.872" height="20.8007" class="st4"/>
			<text x="21.94" y="588.55" class="st5" v:langID="2052"><v:paragraph v:horizAlign="1"/><v:tabList/>无数据报准备好</text>		</g>
		<g id="shape10-43" v:mID="10" v:groupContext="shape" v:layerMember="0" transform="translate(335.064,-505.434)">
			<title>动态连接线</title>
			<v:userDefs>
				<v:ud v:nameU="msvThemeColors" v:val="VT0(254):26"/>
			</v:userDefs>
			<path d="M0 588.78 L159.31 587.64" class="st9"/>
		</g>
		<g id="shape11-49" v:mID="11" v:groupContext="shape" transform="translate(330.602,-522.769)">
			<title>工作表.11</title>
			<desc>系统调用</desc>
			<v:textBlock v:margins="rect(4,4,4,4)" v:tabSpace="42.5197"/>
			<v:textRect cx="82.6119" cy="584.875" width="165.23" height="20.8007"/>
			<rect x="0" y="574.475" width="165.224" height="20.8007" class="st4"/>
			<text x="58.61" y="588.55" class="st5" v:langID="2052"><v:paragraph v:horizAlign="1"/><v:tabList/>系统调用</text>		</g>
		<g id="shape12-52" v:mID="12" v:groupContext="shape" transform="translate(515.854,-308.829)">
			<title>工作表.12</title>
			<desc>数据报准备好</desc>
			<v:textBlock v:margins="rect(4,4,4,4)" v:tabSpace="42.5197"/>
			<v:textRect cx="63.9361" cy="584.875" width="127.88" height="20.8007"/>
			<rect x="0" y="574.475" width="127.872" height="20.8007" class="st4"/>
			<text x="27.94" y="588.55" class="st5" v:langID="2052"><v:paragraph v:horizAlign="1"/><v:tabList/>数据报准备好</text>		</g>
		<g id="shape13-55" v:mID="13" v:groupContext="shape" transform="translate(211.238,-116.344)">
			<title>工作表.13</title>
			<desc>处理数据报</desc>
			<v:textBlock v:margins="rect(4,4,4,4)" v:tabSpace="42.5197"/>
			<v:textRect cx="63.9361" cy="584.875" width="127.88" height="20.8007"/>
			<rect x="0" y="574.475" width="127.872" height="20.8007" class="st4"/>
			<text x="33.94" y="588.55" class="st5" v:langID="2052"><v:paragraph v:horizAlign="1"/><v:tabList/>处理数据报</text>		</g>
		<g id="shape14-58" v:mID="14" v:groupContext="shape" transform="translate(515.854,-242.39)">
			<title>工作表.14</title>
			<desc>拷贝数据报</desc>
			<v:textBlock v:margins="rect(4,4,4,4)" v:tabSpace="42.5197"/>
			<v:textRect cx="63.9361" cy="584.875" width="127.88" height="20.8007"/>
			<rect x="0" y="574.475" width="127.872" height="20.8007" class="st4"/>
			<text x="33.94" y="588.55" class="st5" v:langID="2052"><v:paragraph v:horizAlign="1"/><v:tabList/>拷贝数据报</text>		</g>
		<g id="shape15-61" v:mID="15" v:groupContext="shape" transform="translate(511.66,-149.896)">
			<title>工作表.15</title>
			<desc>拷贝完成</desc>
			<v:textBlock v:margins="rect(4,4,4,4)" v:tabSpace="42.5197"/>
			<v:textRect cx="63.9361" cy="584.875" width="127.88" height="20.8007"/>
			<rect x="0" y="574.475" width="127.872" height="20.8007" class="st4"/>
			<text x="39.94" y="588.55" class="st5" v:langID="2052"><v:paragraph v:horizAlign="1"/><v:tabList/>拷贝完成</text>		</g>
		<g id="shape17-64" v:mID="17" v:groupContext="shape" v:layerMember="0" transform="translate(583.933,-238.05)">
			<title>动态连接线.17</title>
			<v:userDefs>
				<v:ud v:nameU="msvThemeColors" v:val="VT0(254):26"/>
			</v:userDefs>
			<path d="M-6.76 595.28 L-7.36 657.38" class="st9"/>
		</g>
		<g id="shape18-69" v:mID="18" v:groupContext="shape" v:layerMember="0" transform="translate(511.66,-168.375)">
			<title>动态连接线.18</title>
			<v:userDefs>
				<v:ud v:nameU="msvThemeColors" v:val="VT0(254):26"/>
			</v:userDefs>
			<path d="M0 602.21 L-163.93 602.5" class="st9"/>
		</g>
		<g id="shape19-74" v:mID="19" v:groupContext="shape" transform="translate(344.177,-170.117)">
			<title>工作表.19</title>
			<desc>返回成功指示</desc>
			<v:textBlock v:margins="rect(4,4,4,4)" v:tabSpace="42.5197"/>
			<v:textRect cx="82.6119" cy="584.875" width="165.23" height="20.8007"/>
			<rect x="0" y="574.475" width="165.224" height="20.8007" class="st4"/>
			<text x="46.61" y="588.55" class="st5" v:langID="2052"><v:paragraph v:horizAlign="1"/><v:tabList/>返回成功指示</text>		</g>
		<g id="shape20-77" v:mID="20" v:groupContext="shape" transform="translate(654.511,-400.664)">
			<title>工作表.20</title>
			<desc>等待数据</desc>
			<v:textBlock v:margins="rect(4,4,4,4)" v:tabSpace="42.5197"/>
			<v:textRect cx="63.9361" cy="584.875" width="127.88" height="20.8007"/>
			<rect x="0" y="574.475" width="127.872" height="20.8007" class="st4"/>
			<text x="39.94" y="588.55" class="st5" v:langID="2052"><v:paragraph v:horizAlign="1"/><v:tabList/>等待数据</text>		</g>
		<g id="shape21-80" v:mID="21" v:groupContext="shape" transform="translate(686.522,-191.647)">
			<title>工作表.21</title>
			<desc>将数据从内核拷贝到用户空间</desc>
			<v:textBlock v:margins="rect(4,4,4,4)" v:tabSpace="42.5197"/>
			<v:textRect cx="63.9361" cy="584.875" width="127.88" height="20.8007"/>
			<rect x="0" y="574.475" width="127.872" height="20.8007" class="st4"/>
			<text x="9.94" y="581.14" class="st5" v:langID="2052"><v:paragraph v:horizAlign="1"/><v:tabList/>将数据从内核拷贝到<tspan
						x="39.94" dy="1.218em" class="st7">用户空间</tspan></text>		</g>
		<g id="shape22-84" v:mID="22" v:groupContext="shape" transform="translate(343.749,-27.3406)">
			<title>工作表.22</title>
			<desc>非阻塞 I/O 模型</desc>
			<v:textBlock v:margins="rect(4,4,4,4)" v:tabSpace="42.5197"/>
			<v:textRect cx="82.6119" cy="584.875" width="165.23" height="20.8007"/>
			<rect x="0" y="574.475" width="165.224" height="20.8007" class="st4"/>
			<text x="36.12" y="588.55" class="st5" v:langID="2052"><v:paragraph v:horizAlign="1"/><v:tabList/>非阻塞<tspan class="st6"> </tspan><tspan
						class="st6">I</tspan><tspan class="st6">/</tspan><tspan class="st6">O </tspan>模型</text>		</g>
		<g id="shape23-91" v:mID="23" v:groupContext="shape" v:layerMember="0" transform="translate(499.866,-480.708)">
			<title>动态连接线.23</title>
			<v:userDefs>
				<v:ud v:nameU="msvThemeColors" v:val="VT0(254):26"/>
			</v:userDefs>
			<path d="M0 602.21 L-163.93 602.5" class="st9"/>
		</g>
		<g id="shape24-96" v:mID="24" v:groupContext="shape" transform="translate(330.602,-481.168)">
			<title>工作表.24</title>
			<desc>EWOULDBLOCK</desc>
			<v:textBlock v:margins="rect(4,4,4,4)" v:tabSpace="42.5197"/>
			<v:textRect cx="82.6119" cy="584.875" width="165.23" height="20.8007"/>
			<rect x="0" y="574.475" width="165.224" height="20.8007" class="st4"/>
			<text x="46.32" y="588.48" class="st8" v:langID="2052"><v:paragraph v:horizAlign="1"/><v:tabList/>EWOULDBLOCK</text>		</g>
		<g id="shape25-99" v:mID="25" v:groupContext="shape" transform="translate(206.29,-412.297)">
			<title>工作表.25</title>
			<desc>recvfrom</desc>
			<v:textBlock v:margins="rect(4,4,4,4)" v:tabSpace="42.5197"/>
			<v:textRect cx="63.9361" cy="584.875" width="127.88" height="20.8007"/>
			<rect x="0" y="574.475" width="127.872" height="20.8007" class="st4"/>
			<text x="37.54" y="588.48" class="st8" v:langID="2052"><v:paragraph v:horizAlign="1"/><v:tabList/>recvfrom</text>		</g>
		<g id="shape26-102" v:mID="26" v:groupContext="shape" transform="translate(516.756,-386.338)">
			<title>工作表.26</title>
			<desc>无数据报准备好</desc>
			<v:textBlock v:margins="rect(4,4,4,4)" v:tabSpace="42.5197"/>
			<v:textRect cx="63.9361" cy="584.875" width="127.88" height="20.8007"/>
			<rect x="0" y="574.475" width="127.872" height="20.8007" class="st4"/>
			<text x="21.94" y="588.55" class="st5" v:langID="2052"><v:paragraph v:horizAlign="1"/><v:tabList/>无数据报准备好</text>		</g>
		<g id="shape27-105" v:mID="27" v:groupContext="shape" v:layerMember="0" transform="translate(334.163,-416.418)">
			<title>动态连接线.27</title>
			<v:userDefs>
				<v:ud v:nameU="msvThemeColors" v:val="VT0(254):26"/>
			</v:userDefs>
			<path d="M0 588.78 L159.31 587.64" class="st9"/>
		</g>
		<g id="shape28-110" v:mID="28" v:groupContext="shape" transform="translate(333.586,-433.753)">
			<title>工作表.28</title>
			<desc>系统调用</desc>
			<v:textBlock v:margins="rect(4,4,4,4)" v:tabSpace="42.5197"/>
			<v:textRect cx="82.6119" cy="584.875" width="165.23" height="20.8007"/>
			<rect x="0" y="574.475" width="165.224" height="20.8007" class="st4"/>
			<text x="58.61" y="588.55" class="st5" v:langID="2052"><v:paragraph v:horizAlign="1"/><v:tabList/>系统调用</text>		</g>
		<g id="shape29-113" v:mID="29" v:groupContext="shape" v:layerMember="0" transform="translate(505.366,-391.692)">
			<title>动态连接线.29</title>
			<v:userDefs>
				<v:ud v:nameU="msvThemeColors" v:val="VT0(254):26"/>
			</v:userDefs>
			<path d="M0 602.21 L-163.93 602.5" class="st9"/>
		</g>
		<g id="shape30-118" v:mID="30" v:groupContext="shape" transform="translate(342.847,-392.152)">
			<title>工作表.30</title>
			<desc>EWOULDBLOCK</desc>
			<v:textBlock v:margins="rect(4,4,4,4)" v:tabSpace="42.5197"/>
			<v:textRect cx="82.6119" cy="584.875" width="165.23" height="20.8007"/>
			<rect x="0" y="574.475" width="165.224" height="20.8007" class="st4"/>
			<text x="46.32" y="588.48" class="st8" v:langID="2052"><v:paragraph v:horizAlign="1"/><v:tabList/>EWOULDBLOCK</text>		</g>
		<g id="shape31-121" v:mID="31" v:groupContext="shape" v:layerMember="0" transform="translate(334.163,-311.316)">
			<title>动态连接线.31</title>
			<v:userDefs>
				<v:ud v:nameU="msvThemeColors" v:val="VT0(254):26"/>
			</v:userDefs>
			<path d="M0 588.78 L159.31 587.64" class="st9"/>
		</g>
		<g id="shape32-126" v:mID="32" v:groupContext="shape" transform="translate(331.218,-326.494)">
			<title>工作表.32</title>
			<desc>系统调用</desc>
			<v:textBlock v:margins="rect(4,4,4,4)" v:tabSpace="42.5197"/>
			<v:textRect cx="82.6119" cy="584.875" width="165.23" height="20.8007"/>
			<rect x="0" y="574.475" width="165.224" height="20.8007" class="st4"/>
			<text x="58.61" y="588.55" class="st5" v:langID="2052"><v:paragraph v:horizAlign="1"/><v:tabList/>系统调用</text>		</g>
		<g id="shape33-129" v:mID="33" v:groupContext="shape" transform="translate(206.29,-308.829)">
			<title>工作表.33</title>
			<desc>recvfrom</desc>
			<v:textBlock v:margins="rect(4,4,4,4)" v:tabSpace="42.5197"/>
			<v:textRect cx="63.9361" cy="584.875" width="127.88" height="20.8007"/>
			<rect x="0" y="574.475" width="127.872" height="20.8007" class="st4"/>
			<text x="37.54" y="588.48" class="st8" v:langID="2052"><v:paragraph v:horizAlign="1"/><v:tabList/>recvfrom</text>		</g>
		<g id="shape35-132" v:mID="35" v:groupContext="shape" transform="translate(401.33,-350.55)">
			<title>工作表.35</title>
			<desc>…</desc>
			<v:textBlock v:margins="rect(4,4,4,4)" v:tabSpace="42.5197" v:verticalText="true"/>
			<v:textRect cx="12.5005" cy="584.875" width="25.01" height="20.8007"/>
			<rect x="0" y="574.475" width="25.001" height="20.8007" class="st11"/>
			<text x="9.8" y="579.69" writing-mode="tb-rl" class="st12" v:langID="2052"><v:paragraph v:horizAlign="1"/><v:tabList/><tspan
						glyph-orientation-vertical="0">…</tspan></text>		</g>
	</g>
</svg>
