<?xml version="1.0" encoding="UTF-8" standalone="no"?>
<!DOCTYPE svg PUBLIC "-//W3C//DTD SVG 1.1//EN" "http://www.w3.org/Graphics/SVG/1.1/DTD/svg11.dtd">
<!-- 由 Microsoft Visio, SVG Export 生成 2.svg Page-1 -->
<svg xmlns="http://www.w3.org/2000/svg" xmlns:xlink="http://www.w3.org/1999/xlink" xmlns:ev="http://www.w3.org/2001/xml-events"
		xmlns:v="http://schemas.microsoft.com/visio/2003/SVGExtensions/" width="11.6929in" height="8.26772in"
		viewBox="0 0 841.89 595.276" xml:space="preserve" color-interpolation-filters="sRGB" class="st15">
	<v:documentProperties v:langID="2052" v:metric="true" v:viewMarkup="false">
		<v:userDefs>
			<v:ud v:nameU="msvSubprocessMaster" v:prompt="" v:val="VT4(Rectangle)"/>
			<v:ud v:nameU="msvNoAutoConnect" v:val="VT0(1):26"/>
			<v:ud v:nameU="msvConvertTheme"/>
		</v:userDefs>
	</v:documentProperties>

	<style type="text/css">
	<![CDATA[
		.st1 {visibility:visible}
		.st2 {fill:none;filter:url(#filter_2);stroke:#5b9bd5;stroke-opacity:0.22}
		.st3 {stroke:#000000;stroke-width:0.25}
		.st4 {fill:none;stroke:#ffffff;stroke-width:0.25}
		.st5 {fill:#000000;font-family:微软雅黑;font-size:1.00001em}
		.st6 {font-family:Consolas;font-size:1em}
		.st7 {font-size:1em}
		.st8 {fill:#000000;font-family:Consolas;font-size:1.00001em}
		.st9 {marker-end:url(#mrkr4-48);stroke:#ffffff;stroke-linecap:round;stroke-linejoin:round;stroke-width:1}
		.st10 {fill:#ffffff;fill-opacity:1;stroke:#ffffff;stroke-opacity:1;stroke-width:0.28409090909091}
		.st11 {marker-end:url(#mrkr4-69);stroke:#000000;stroke-linecap:round;stroke-linejoin:round;stroke-width:0.25}
		.st12 {fill:#000000;fill-opacity:1;stroke:#000000;stroke-opacity:1;stroke-width:0.090252707581227}
		.st13 {fill:none;stroke:#ffffff;stroke-linecap:round;stroke-linejoin:round;stroke-width:0.75}
		.st14 {fill:#000000;font-family:Consolas;font-size:12}
		.st15 {fill:none;fill-rule:evenodd;font-size:12px;overflow:visible;stroke-linecap:square;stroke-miterlimit:3}
	]]>
	</style>

	<defs id="Markers">
		<g id="lend4">
			<path d="M 2 1 L 0 0 L 2 -1 L 2 1 " style="stroke:none"/>
		</g>
		<marker id="mrkr4-48" class="st10" v:arrowType="4" v:arrowSize="2" v:setback="7.04" refX="-7.04" orient="auto"
				markerUnits="strokeWidth" overflow="visible">
			<use xlink:href="#lend4" transform="scale(-3.52,-3.52) "/>
		</marker>
		<marker id="mrkr4-69" class="st12" v:arrowType="4" v:arrowSize="2" v:setback="22.16" refX="-22.16" orient="auto"
				markerUnits="strokeWidth" overflow="visible">
			<use xlink:href="#lend4" transform="scale(-11.08,-11.08) "/>
		</marker>
	</defs>
	<defs id="Filters">
		<filter id="filter_2">
			<feGaussianBlur stdDeviation="2"/>
		</filter>
	</defs>
	<g v:mID="0" v:index="1" v:groupContext="foregroundPage">
		<v:userDefs>
			<v:ud v:nameU="msvThemeOrder" v:val="VT0(0):26"/>
		</v:userDefs>
		<title>页-1</title>
		<v:pageProperties v:drawingScale="0.0393701" v:pageScale="0.0393701" v:drawingUnits="24" v:shadowOffsetX="8.50394"
				v:shadowOffsetY="-8.50394"/>
		<v:layer v:name="连接线" v:index="0"/>
		<g id="shape1-1" v:mID="1" v:groupContext="shape" transform="translate(167.185,-210.438)">
			<title>左括号</title>
			<v:userDefs>
				<v:ud v:nameU="visVersion" v:prompt="" v:val="VT0(15):26"/>
			</v:userDefs>
			<g id="shadow1-2" v:groupContext="shadow" v:shadowOffsetX="0.3456" v:shadowOffsetY="-1.9728" v:shadowType="1"
					transform="matrix(1,0,0,1,0.3456,1.9728)" class="st1">
				<path d="M22.25 595.28 A29.789 51.2504 0 0 1 11.13 564.65 L11.13 442.15 L0 442.15 L11.13 442.15 L11.13 319.65 A29.789
							 51.2504 0 0 1 22.25 289.03" class="st2"/>
			</g>
			<path d="M22.25 595.28 A29.789 51.2504 0 0 1 11.13 564.65 L11.13 442.15 L0 442.15 L11.13 442.15 L11.13 319.65 A29.789
						 51.2504 0 0 1 22.25 289.03" class="st3"/>
		</g>
		<g id="shape2-9" v:mID="2" v:groupContext="shape" transform="translate(506.183,-346.511)">
			<title>右括号</title>
			<v:userDefs>
				<v:ud v:nameU="visVersion" v:prompt="" v:val="VT0(15):26"/>
			</v:userDefs>
			<g id="shadow2-10" v:groupContext="shadow" v:shadowOffsetX="0.3456" v:shadowOffsetY="-1.9728" v:shadowType="1"
					transform="matrix(1,0,0,1,0.3456,1.9728)" class="st1">
				<path d="M0 595.28 A29.789 28.9054 -180 0 0 11.13 578 L11.13 508.91 L22.25 508.91 L11.13 508.91 L11.13 439.82 A29.789
							 28.9054 -180 0 0 0 422.55" class="st2"/>
			</g>
			<path d="M0 595.28 A29.789 28.9054 -180 0 0 11.13 578 L11.13 508.91 L22.25 508.91 L11.13 508.91 L11.13 439.82 A29.789
						 28.9054 -180 0 0 0 422.55" class="st3"/>
		</g>
		<g id="shape3-17" v:mID="3" v:groupContext="shape" transform="translate(506.183,-210.473)">
			<title>右括号.3</title>
			<v:userDefs>
				<v:ud v:nameU="visVersion" v:prompt="" v:val="VT0(15):26"/>
			</v:userDefs>
			<g id="shadow3-18" v:groupContext="shadow" v:shadowOffsetX="0.3456" v:shadowOffsetY="-1.9728" v:shadowType="1"
					transform="matrix(1,0,0,1,0.3456,1.9728)" class="st1">
				<path d="M-0 595.28 A29.789 21.6376 -180 0 0 11.13 582.35 L11.13 530.63 L22.25 530.63 L11.13 530.63 L11.13 478.91
							 A29.789 21.6376 -180 0 0 0 465.98" class="st2"/>
			</g>
			<path d="M-0 595.28 A29.789 21.6376 -180 0 0 11.13 582.35 L11.13 530.63 L22.25 530.63 L11.13 530.63 L11.13 478.91 A29.789
						 21.6376 -180 0 0 0 465.98" class="st3"/>
		</g>
		<g id="shape5-25" v:mID="5" v:groupContext="shape" transform="translate(52.5827,-355.712)">
			<title>工作表.5</title>
			<desc>进程反复调用 recvfrom 等待返回成功指示轮询</desc>
			<v:textBlock v:margins="rect(4,4,4,4)" v:tabSpace="42.5197"/>
			<v:textRect cx="59.6559" cy="587.426" width="119.32" height="15.699"/>
			<rect x="0" y="579.577" width="119.312" height="15.699" class="st4"/>
			<text x="23.66" y="576.42" class="st5" v:langID="2052"><v:paragraph v:horizAlign="1"/><v:tabList/>进程反复调用<tspan
						class="st6"> </tspan><tspan x="5.97" dy="1.223em" class="st6">recvfrom </tspan>等待返回<tspan x="11.66"
						dy="1.223em" class="st7">成功指示</tspan>（轮询）</text>		</g>
		<g id="shape6-31" v:mID="6" v:groupContext="shape" transform="translate(169.542,-533.373)">
			<title>工作表.6</title>
			<desc>应用进程</desc>
			<v:textBlock v:margins="rect(4,4,4,4)" v:tabSpace="42.5197"/>
			<v:textRect cx="59.6559" cy="587.426" width="119.32" height="15.699"/>
			<rect x="0" y="579.577" width="119.312" height="15.699" class="st4"/>
			<text x="35.66" y="591.1" class="st5" v:langID="2052"><v:paragraph v:horizAlign="1"/><v:tabList/>应用进程</text>		</g>
		<g id="shape7-34" v:mID="7" v:groupContext="shape" transform="translate(390.901,-535.923)">
			<title>工作表.7</title>
			<desc>内核</desc>
			<v:textBlock v:margins="rect(4,4,4,4)" v:tabSpace="42.5197"/>
			<v:textRect cx="59.6559" cy="587.426" width="119.32" height="15.699"/>
			<rect x="0" y="579.577" width="119.312" height="15.699" class="st4"/>
			<text x="47.66" y="591.1" class="st5" v:langID="2052"><v:paragraph v:horizAlign="1"/><v:tabList/>内核</text>		</g>
		<g id="shape8-37" v:mID="8" v:groupContext="shape" transform="translate(183.164,-500.987)">
			<title>工作表.8</title>
			<desc>recvfrom</desc>
			<v:textBlock v:margins="rect(4,4,4,4)" v:tabSpace="42.5197"/>
			<v:textRect cx="46.1697" cy="587.426" width="92.34" height="15.699"/>
			<rect x="0" y="579.577" width="92.3393" height="15.699" class="st4"/>
			<text x="19.78" y="591.03" class="st8" v:langID="2052"><v:paragraph v:horizAlign="1"/><v:tabList/>recvfrom</text>		</g>
		<g id="shape9-40" v:mID="9" v:groupContext="shape" transform="translate(402.718,-491.422)">
			<title>工作表.9</title>
			<desc>无数据报准备好</desc>
			<v:textBlock v:margins="rect(4,4,4,4)" v:tabSpace="42.5197"/>
			<v:textRect cx="46.1697" cy="587.426" width="92.34" height="15.699"/>
			<rect x="0" y="579.577" width="92.3393" height="15.699" class="st4"/>
			<text x="4.17" y="591.1" class="st5" v:langID="2052"><v:paragraph v:horizAlign="1"/><v:tabList/>无数据报准备好</text>		</g>
		<g id="shape10-43" v:mID="10" v:groupContext="shape" v:layerMember="0" transform="translate(275.503,-502.358)">
			<title>动态连接线</title>
			<v:userDefs>
				<v:ud v:nameU="msvThemeColors" v:val="VT0(254):26"/>
			</v:userDefs>
			<path d="M0 588.63 L112 587.8" class="st9"/>
		</g>
		<g id="shape11-49" v:mID="11" v:groupContext="shape" transform="translate(272.281,-517.18)">
			<title>工作表.11</title>
			<desc>系统调用</desc>
			<v:textBlock v:margins="rect(4,4,4,4)" v:tabSpace="42.5197"/>
			<v:textRect cx="59.6559" cy="587.426" width="119.32" height="15.699"/>
			<rect x="0" y="579.577" width="119.312" height="15.699" class="st4"/>
			<text x="35.66" y="591.1" class="st5" v:langID="2052"><v:paragraph v:horizAlign="1"/><v:tabList/>系统调用</text>		</g>
		<g id="shape12-52" v:mID="12" v:groupContext="shape" transform="translate(406.056,-355.712)">
			<title>工作表.12</title>
			<desc>数据报准备好</desc>
			<v:textBlock v:margins="rect(4,4,4,4)" v:tabSpace="42.5197"/>
			<v:textRect cx="46.1697" cy="587.426" width="92.34" height="15.699"/>
			<rect x="0" y="579.577" width="92.3393" height="15.699" class="st4"/>
			<text x="10.17" y="591.1" class="st5" v:langID="2052"><v:paragraph v:horizAlign="1"/><v:tabList/>数据报准备好</text>		</g>
		<g id="shape13-55" v:mID="13" v:groupContext="shape" transform="translate(186.085,-210.438)">
			<title>工作表.13</title>
			<desc>处理数据报</desc>
			<v:textBlock v:margins="rect(4,4,4,4)" v:tabSpace="42.5197"/>
			<v:textRect cx="46.1697" cy="587.426" width="92.34" height="15.699"/>
			<rect x="0" y="579.577" width="92.3393" height="15.699" class="st4"/>
			<text x="16.17" y="591.1" class="st5" v:langID="2052"><v:paragraph v:horizAlign="1"/><v:tabList/>处理数据报</text>		</g>
		<g id="shape14-58" v:mID="14" v:groupContext="shape" transform="translate(406.056,-305.569)">
			<title>工作表.14</title>
			<desc>拷贝数据报</desc>
			<v:textBlock v:margins="rect(4,4,4,4)" v:tabSpace="42.5197"/>
			<v:textRect cx="46.1697" cy="587.426" width="92.34" height="15.699"/>
			<rect x="0" y="579.577" width="92.3393" height="15.699" class="st4"/>
			<text x="16.17" y="591.1" class="st5" v:langID="2052"><v:paragraph v:horizAlign="1"/><v:tabList/>拷贝数据报</text>		</g>
		<g id="shape15-61" v:mID="15" v:groupContext="shape" transform="translate(403.027,-235.761)">
			<title>工作表.15</title>
			<desc>拷贝完成</desc>
			<v:textBlock v:margins="rect(4,4,4,4)" v:tabSpace="42.5197"/>
			<v:textRect cx="46.1697" cy="587.426" width="92.34" height="15.699"/>
			<rect x="0" y="579.577" width="92.3393" height="15.699" class="st4"/>
			<text x="22.17" y="591.1" class="st5" v:langID="2052"><v:paragraph v:horizAlign="1"/><v:tabList/>拷贝完成</text>		</g>
		<g id="shape17-64" v:mID="17" v:groupContext="shape" v:layerMember="0" transform="translate(457.186,-302.293)">
			<title>动态连接线.17</title>
			<v:userDefs>
				<v:ud v:nameU="msvThemeColors" v:val="VT0(254):26"/>
			</v:userDefs>
			<path d="M-6.85 595.28 L-7.27 640.79" class="st11"/>
		</g>
		<g id="shape18-70" v:mID="18" v:groupContext="shape" v:layerMember="0" transform="translate(403.027,-251.446)">
			<title>动态连接线.18</title>
			<v:userDefs>
				<v:ud v:nameU="msvThemeColors" v:val="VT0(254):26"/>
			</v:userDefs>
			<path d="M0 602.25 L-116.84 602.46" class="st11"/>
		</g>
		<g id="shape19-75" v:mID="19" v:groupContext="shape" transform="translate(282.084,-251.022)">
			<title>工作表.19</title>
			<desc>返回成功指示</desc>
			<v:textBlock v:margins="rect(4,4,4,4)" v:tabSpace="42.5197"/>
			<v:textRect cx="59.6559" cy="587.426" width="119.32" height="15.699"/>
			<rect x="0" y="579.577" width="119.312" height="15.699" class="st4"/>
			<text x="23.66" y="591.1" class="st5" v:langID="2052"><v:paragraph v:horizAlign="1"/><v:tabList/>返回成功指示</text>		</g>
		<g id="shape20-78" v:mID="20" v:groupContext="shape" transform="translate(506.183,-425.024)">
			<title>工作表.20</title>
			<desc>等待数据</desc>
			<v:textBlock v:margins="rect(4,4,4,4)" v:tabSpace="42.5197"/>
			<v:textRect cx="46.1697" cy="587.426" width="92.34" height="15.699"/>
			<rect x="0" y="579.577" width="92.3393" height="15.699" class="st4"/>
			<text x="22.17" y="591.1" class="st5" v:langID="2052"><v:paragraph v:horizAlign="1"/><v:tabList/>等待数据</text>		</g>
		<g id="shape21-81" v:mID="21" v:groupContext="shape" transform="translate(529.298,-267.271)">
			<title>工作表.21</title>
			<desc>将数据从内核拷贝到用户空间</desc>
			<v:textBlock v:margins="rect(4,4,4,4)" v:tabSpace="42.5197"/>
			<v:textRect cx="46.1697" cy="587.426" width="92.34" height="15.699"/>
			<rect x="0" y="579.577" width="92.3393" height="15.699" class="st4"/>
			<text x="4.17" y="583.69" class="st5" v:langID="2052"><v:paragraph v:horizAlign="1"/><v:tabList/>将数据从内核拷<tspan
						x="10.17" dy="1.218em" class="st7">贝到用户空间</tspan></text>		</g>
		<g id="shape22-85" v:mID="22" v:groupContext="shape" transform="translate(281.775,-143.265)">
			<title>工作表.22</title>
			<desc>非阻塞 I/O 模型</desc>
			<v:textBlock v:margins="rect(4,4,4,4)" v:tabSpace="42.5197"/>
			<v:textRect cx="59.6559" cy="587.426" width="119.32" height="15.699"/>
			<rect x="0" y="579.577" width="119.312" height="15.699" class="st4"/>
			<text x="13.16" y="591.1" class="st5" v:langID="2052"><v:paragraph v:horizAlign="1"/><v:tabList/>非阻塞<tspan class="st6"> </tspan><tspan
						class="st6">I</tspan><tspan class="st6">/</tspan><tspan class="st6">O </tspan>模型</text>		</g>
		<g id="shape23-92" v:mID="23" v:groupContext="shape" v:layerMember="0" transform="translate(394.51,-487.173)">
			<title>动态连接线.23</title>
			<v:userDefs>
				<v:ud v:nameU="msvThemeColors" v:val="VT0(254):26"/>
			</v:userDefs>
			<path d="M0 602.25 L-116.84 602.46" class="st11"/>
		</g>
		<g id="shape24-97" v:mID="24" v:groupContext="shape" transform="translate(272.281,-485.782)">
			<title>工作表.24</title>
			<desc>EWOULDBLOCK</desc>
			<v:textBlock v:margins="rect(4,4,4,4)" v:tabSpace="42.5197"/>
			<v:textRect cx="59.6559" cy="587.426" width="119.32" height="15.699"/>
			<rect x="0" y="579.577" width="119.312" height="15.699" class="st4"/>
			<text x="23.37" y="591.03" class="st8" v:langID="2052"><v:paragraph v:horizAlign="1"/><v:tabList/>EWOULDBLOCK</text>		</g>
		<g id="shape25-100" v:mID="25" v:groupContext="shape" transform="translate(182.513,-433.803)">
			<title>工作表.25</title>
			<desc>recvfrom</desc>
			<v:textBlock v:margins="rect(4,4,4,4)" v:tabSpace="42.5197"/>
			<v:textRect cx="46.1697" cy="587.426" width="92.34" height="15.699"/>
			<rect x="0" y="579.577" width="92.3393" height="15.699" class="st4"/>
			<text x="19.78" y="591.03" class="st8" v:langID="2052"><v:paragraph v:horizAlign="1"/><v:tabList/>recvfrom</text>		</g>
		<g id="shape26-103" v:mID="26" v:groupContext="shape" transform="translate(406.707,-414.211)">
			<title>工作表.26</title>
			<desc>无数据报准备好</desc>
			<v:textBlock v:margins="rect(4,4,4,4)" v:tabSpace="42.5197"/>
			<v:textRect cx="46.1697" cy="587.426" width="92.34" height="15.699"/>
			<rect x="0" y="579.577" width="92.3393" height="15.699" class="st4"/>
			<text x="4.17" y="591.1" class="st5" v:langID="2052"><v:paragraph v:horizAlign="1"/><v:tabList/>无数据报准备好</text>		</g>
		<g id="shape27-106" v:mID="27" v:groupContext="shape" v:layerMember="0" transform="translate(274.852,-435.175)">
			<title>动态连接线.27</title>
			<v:userDefs>
				<v:ud v:nameU="msvThemeColors" v:val="VT0(254):26"/>
			</v:userDefs>
			<path d="M0 588.63 L113.5 587.79" class="st11"/>
		</g>
		<g id="shape28-111" v:mID="28" v:groupContext="shape" transform="translate(274.436,-449.997)">
			<title>工作表.28</title>
			<desc>系统调用</desc>
			<v:textBlock v:margins="rect(4,4,4,4)" v:tabSpace="42.5197"/>
			<v:textRect cx="59.6559" cy="587.426" width="119.32" height="15.699"/>
			<rect x="0" y="579.577" width="119.312" height="15.699" class="st4"/>
			<text x="35.66" y="591.1" class="st5" v:langID="2052"><v:paragraph v:horizAlign="1"/><v:tabList/>系统调用</text>		</g>
		<g id="shape29-114" v:mID="29" v:groupContext="shape" v:layerMember="0" transform="translate(398.482,-419.99)">
			<title>动态连接线.29</title>
			<v:userDefs>
				<v:ud v:nameU="msvThemeColors" v:val="VT0(254):26"/>
			</v:userDefs>
			<path d="M0 602.25 L-116.84 602.46" class="st11"/>
		</g>
		<g id="shape30-119" v:mID="30" v:groupContext="shape" transform="translate(281.124,-418.599)">
			<title>工作表.30</title>
			<desc>EWOULDBLOCK</desc>
			<v:textBlock v:margins="rect(4,4,4,4)" v:tabSpace="42.5197"/>
			<v:textRect cx="59.6559" cy="587.426" width="119.32" height="15.699"/>
			<rect x="0" y="579.577" width="119.312" height="15.699" class="st4"/>
			<text x="23.37" y="591.03" class="st8" v:langID="2052"><v:paragraph v:horizAlign="1"/><v:tabList/>EWOULDBLOCK</text>		</g>
		<g id="shape31-122" v:mID="31" v:groupContext="shape" v:layerMember="0" transform="translate(274.852,-355.852)">
			<title>动态连接线.31</title>
			<v:userDefs>
				<v:ud v:nameU="msvThemeColors" v:val="VT0(254):26"/>
			</v:userDefs>
			<path d="M0 588.63 L113.5 587.79" class="st11"/>
		</g>
		<g id="shape32-127" v:mID="32" v:groupContext="shape" transform="translate(272.726,-369.045)">
			<title>工作表.32</title>
			<desc>系统调用</desc>
			<v:textBlock v:margins="rect(4,4,4,4)" v:tabSpace="42.5197"/>
			<v:textRect cx="59.6559" cy="587.426" width="119.32" height="15.699"/>
			<rect x="0" y="579.577" width="119.312" height="15.699" class="st4"/>
			<text x="35.66" y="591.1" class="st5" v:langID="2052"><v:paragraph v:horizAlign="1"/><v:tabList/>系统调用</text>		</g>
		<g id="shape33-130" v:mID="33" v:groupContext="shape" transform="translate(182.513,-355.712)">
			<title>工作表.33</title>
			<desc>recvfrom</desc>
			<v:textBlock v:margins="rect(4,4,4,4)" v:tabSpace="42.5197"/>
			<v:textRect cx="46.1697" cy="587.426" width="92.34" height="15.699"/>
			<rect x="0" y="579.577" width="92.3393" height="15.699" class="st4"/>
			<text x="19.78" y="591.03" class="st8" v:langID="2052"><v:paragraph v:horizAlign="1"/><v:tabList/>recvfrom</text>		</g>
		<g id="shape35-133" v:mID="35" v:groupContext="shape" transform="translate(323.355,-387.201)">
			<title>工作表.35</title>
			<desc>…</desc>
			<v:textBlock v:margins="rect(4,4,4,4)" v:tabSpace="42.5197" v:verticalText="true"/>
			<v:textRect cx="9.0269" cy="587.426" width="18.06" height="15.699"/>
			<rect x="0" y="579.577" width="18.0538" height="15.699" class="st13"/>
			<text x="6.33" y="582.24" writing-mode="tb-rl" class="st14" v:langID="2052"><v:paragraph v:horizAlign="1"/><v:tabList/><tspan
						glyph-orientation-vertical="0">…</tspan></text>		</g>
	</g>
</svg>
