<?xml version="1.0" encoding="UTF-8" standalone="no"?>
<!DOCTYPE svg PUBLIC "-//W3C//DTD SVG 1.1//EN" "http://www.w3.org/Graphics/SVG/1.1/DTD/svg11.dtd">
<!-- 由 Microsoft Visio, SVG Export 生成 3.svg 页-1 -->
<svg xmlns="http://www.w3.org/2000/svg" xmlns:xlink="http://www.w3.org/1999/xlink" xmlns:ev="http://www.w3.org/2001/xml-events"
		xmlns:v="http://schemas.microsoft.com/visio/2003/SVGExtensions/" width="10.9715in" height="7.54163in"
		viewBox="0 0 789.949 542.997" xml:space="preserve" color-interpolation-filters="sRGB" class="st12">
	<v:documentProperties v:langID="2052" v:viewMarkup="false">
		<v:userDefs>
			<v:ud v:nameU="msvConvertTheme"/>
		</v:userDefs>
	</v:documentProperties>

	<style type="text/css">
	<![CDATA[
		.st1 {visibility:visible}
		.st2 {fill:none;filter:url(#filter_2);stroke:#5b9bd5;stroke-opacity:0.22}
		.st3 {stroke:#000000;stroke-width:0.25}
		.st4 {fill:none;stroke:none;stroke-width:0.25}
		.st5 {fill:#000000;font-family:微软雅黑;font-size:1.00001em}
		.st6 {font-size:1em}
		.st7 {fill:#000000;font-family:Consolas;font-size:1.00001em}
		.st8 {marker-end:url(#mrkr4-46);stroke:#000000;stroke-linecap:round;stroke-linejoin:round;stroke-width:0.25}
		.st9 {fill:#000000;fill-opacity:1;stroke:#000000;stroke-opacity:1;stroke-width:0.090252707581227}
		.st10 {font-family:微软雅黑;font-size:1em}
		.st11 {font-family:Consolas;font-size:1em}
		.st12 {fill:none;fill-rule:evenodd;font-size:12px;overflow:visible;stroke-linecap:square;stroke-miterlimit:3}
	]]>
	</style>

	<defs id="Markers">
		<g id="lend4">
			<path d="M 2 1 L 0 0 L 2 -1 L 2 1 " style="stroke:none"/>
		</g>
		<marker id="mrkr4-46" class="st9" v:arrowType="4" v:arrowSize="2" v:setback="22.16" refX="-22.16" orient="auto"
				markerUnits="strokeWidth" overflow="visible">
			<use xlink:href="#lend4" transform="scale(-11.08,-11.08) "/>
		</marker>
	</defs>
	<defs id="Filters">
		<filter id="filter_2">
			<feGaussianBlur stdDeviation="2"/>
		</filter>
	</defs>
	<g v:mID="0" v:index="1" v:groupContext="foregroundPage">
		<title>页-1</title>
		<v:pageProperties v:drawingScale="0.0393701" v:pageScale="0.0393701" v:drawingUnits="24" v:shadowOffsetX="8.50394"
				v:shadowOffsetY="-8.50394"/>
		<v:layer v:name="连接线" v:index="0"/>
		<g id="shape1-1" v:mID="1" v:groupContext="shape" transform="translate(161.842,-89.4895)">
			<title>左括号</title>
			<v:userDefs>
				<v:ud v:nameU="visVersion" v:prompt="" v:val="VT0(15):26"/>
			</v:userDefs>
			<g id="shadow1-2" v:groupContext="shadow" v:shadowOffsetX="0.3456" v:shadowOffsetY="-1.9728" v:shadowType="1"
					transform="matrix(1,0,0,1,0.3456,1.9728)" class="st1">
				<path d="M30.74 543 A41.1553 28.7452 0 0 1 15.37 525.82 L15.37 457.11 L0 457.11 L15.37 457.11 L15.37 388.41 A41.1553
							 28.7452 0 0 1 30.74 371.23" class="st2"/>
			</g>
			<path d="M30.74 543 A41.1553 28.7452 0 0 1 15.37 525.82 L15.37 457.11 L0 457.11 L15.37 457.11 L15.37 388.41 A41.1553
						 28.7452 0 0 1 30.74 371.23" class="st3"/>
		</g>
		<g id="shape2-9" v:mID="2" v:groupContext="shape" transform="translate(630.19,-270.26)">
			<title>右括号</title>
			<v:userDefs>
				<v:ud v:nameU="visVersion" v:prompt="" v:val="VT0(15):26"/>
			</v:userDefs>
			<g id="shadow2-10" v:groupContext="shadow" v:shadowOffsetX="0.3456" v:shadowOffsetY="-1.9728" v:shadowType="1"
					transform="matrix(1,0,0,1,0.3456,1.9728)" class="st1">
				<path d="M0 543 A41.1553 38.4004 -180 0 0 15.37 520.05 L15.37 428.27 L30.74 428.27 L15.37 428.27 L15.37 336.48 A41.1553
							 38.4004 -180 0 0 0 313.54" class="st2"/>
			</g>
			<path d="M0 543 A41.1553 38.4004 -180 0 0 15.37 520.05 L15.37 428.27 L30.74 428.27 L15.37 428.27 L15.37 336.48 A41.1553
						 38.4004 -180 0 0 0 313.54" class="st3"/>
		</g>
		<g id="shape3-17" v:mID="3" v:groupContext="shape" transform="translate(630.19,-89.5358)">
			<title>右括号.3</title>
			<v:userDefs>
				<v:ud v:nameU="visVersion" v:prompt="" v:val="VT0(15):26"/>
			</v:userDefs>
			<g id="shadow3-18" v:groupContext="shadow" v:shadowOffsetX="0.3456" v:shadowOffsetY="-1.9728" v:shadowType="1"
					transform="matrix(1,0,0,1,0.3456,1.9728)" class="st1">
				<path d="M0 543 A41.1553 28.7452 -180 0 0 15.37 525.82 L15.37 457.11 L30.74 457.11 L15.37 457.11 L15.37 388.41 A41.1553
							 28.7452 -180 0 0 0 371.23" class="st2"/>
			</g>
			<path d="M0 543 A41.1553 28.7452 -180 0 0 15.37 525.82 L15.37 457.11 L30.74 457.11 L15.37 457.11 L15.37 388.41 A41.1553
						 28.7452 -180 0 0 0 371.23" class="st3"/>
		</g>
		<g id="shape5-25" v:mID="5" v:groupContext="shape" transform="translate(0.25,-164.945)">
			<title>工作表.5</title>
			<desc>数据拷贝到应用缓冲区期间进程阻塞</desc>
			<v:textBlock v:margins="rect(4,4,4,4)" v:tabSpace="42.5197"/>
			<v:textRect cx="82.4186" cy="532.569" width="164.84" height="20.8558"/>
			<rect x="0" y="522.141" width="164.837" height="20.8558" class="st4"/>
			<text x="4.42" y="528.83" class="st5" v:langID="2052"><v:paragraph v:horizAlign="1"/><v:tabList/>数据拷贝到应用缓冲区期间进<tspan
						x="64.42" dy="1.218em" class="st6">程阻塞</tspan></text>		</g>
		<g id="shape6-29" v:mID="6" v:groupContext="shape" transform="translate(165.098,-518.504)">
			<title>工作表.6</title>
			<desc>应用进程</desc>
			<v:textBlock v:margins="rect(4,4,4,4)" v:tabSpace="42.5197"/>
			<v:textRect cx="82.4186" cy="532.569" width="164.84" height="20.8558"/>
			<rect x="0" y="522.141" width="164.837" height="20.8558" class="st4"/>
			<text x="58.42" y="536.24" class="st5" v:langID="2052"><v:paragraph v:horizAlign="1"/><v:tabList/>应用进程</text>		</g>
		<g id="shape7-32" v:mID="7" v:groupContext="shape" transform="translate(470.92,-521.891)">
			<title>工作表.7</title>
			<desc>内核</desc>
			<v:textBlock v:margins="rect(4,4,4,4)" v:tabSpace="42.5197"/>
			<v:textRect cx="82.4186" cy="532.569" width="164.84" height="20.8558"/>
			<rect x="0" y="522.141" width="164.837" height="20.8558" class="st4"/>
			<text x="70.42" y="536.24" class="st5" v:langID="2052"><v:paragraph v:horizAlign="1"/><v:tabList/>内核</text>		</g>
		<g id="shape8-35" v:mID="8" v:groupContext="shape" transform="translate(183.918,-475.478)">
			<title>工作表.8</title>
			<desc>select</desc>
			<v:textBlock v:margins="rect(4,4,4,4)" v:tabSpace="42.5197"/>
			<v:textRect cx="63.7864" cy="532.569" width="127.58" height="20.8558"/>
			<rect x="0" y="522.141" width="127.573" height="20.8558" class="st4"/>
			<text x="43.99" y="536.17" class="st7" v:langID="2052"><v:paragraph v:horizAlign="1"/><v:tabList/>select</text>		</g>
		<g id="shape9-38" v:mID="9" v:groupContext="shape" transform="translate(493.054,-478.866)">
			<title>工作表.9</title>
			<desc>无数据报准备好</desc>
			<v:textBlock v:margins="rect(4,4,4,4)" v:tabSpace="42.5197"/>
			<v:textRect cx="56.1013" cy="532.569" width="112.21" height="20.8558"/>
			<rect x="0" y="522.141" width="112.203" height="20.8558" class="st4"/>
			<text x="14.1" y="536.24" class="st5" v:langID="2052"><v:paragraph v:horizAlign="1"/><v:tabList/>无数据报准备好</text>		</g>
		<g id="shape10-41" v:mID="10" v:groupContext="shape" v:layerMember="0" transform="translate(311.491,-479.629)">
			<title>动态连接线</title>
			<v:userDefs>
				<v:ud v:nameU="msvThemeColors" v:val="VT0(254):26"/>
			</v:userDefs>
			<path d="M0 536.5 L158.92 535.36" class="st8"/>
		</g>
		<g id="shape11-47" v:mID="11" v:groupContext="shape" transform="translate(307.04,-496.991)">
			<title>工作表.11</title>
			<desc>系统调用</desc>
			<v:textBlock v:margins="rect(4,4,4,4)" v:tabSpace="42.5197"/>
			<v:textRect cx="82.4186" cy="532.569" width="164.84" height="20.8558"/>
			<rect x="0" y="522.141" width="164.837" height="20.8558" class="st4"/>
			<text x="58.42" y="536.24" class="st5" v:langID="2052"><v:paragraph v:horizAlign="1"/><v:tabList/>系统调用</text>		</g>
		<g id="shape12-50" v:mID="12" v:groupContext="shape" transform="translate(491.858,-282.484)">
			<title>工作表.12</title>
			<desc>数据报准备好</desc>
			<v:textBlock v:margins="rect(4,4,4,4)" v:tabSpace="42.5197"/>
			<v:textRect cx="63.7864" cy="532.569" width="127.58" height="20.8558"/>
			<rect x="0" y="522.141" width="127.573" height="20.8558" class="st4"/>
			<text x="27.79" y="536.24" class="st5" v:langID="2052"><v:paragraph v:horizAlign="1"/><v:tabList/>数据报准备好</text>		</g>
		<g id="shape13-53" v:mID="13" v:groupContext="shape" transform="translate(190.328,-89.4895)">
			<title>工作表.13</title>
			<desc>处理数据报</desc>
			<v:textBlock v:margins="rect(4,4,4,4)" v:tabSpace="42.5197"/>
			<v:textRect cx="63.7864" cy="532.569" width="127.58" height="20.8558"/>
			<rect x="0" y="522.141" width="127.573" height="20.8558" class="st4"/>
			<text x="33.79" y="536.24" class="st5" v:langID="2052"><v:paragraph v:horizAlign="1"/><v:tabList/>处理数据报</text>		</g>
		<g id="shape14-56" v:mID="14" v:groupContext="shape" transform="translate(491.858,-215.869)">
			<title>工作表.14</title>
			<desc>拷贝数据报</desc>
			<v:textBlock v:margins="rect(4,4,4,4)" v:tabSpace="42.5197"/>
			<v:textRect cx="63.7864" cy="532.569" width="127.58" height="20.8558"/>
			<rect x="0" y="522.141" width="127.573" height="20.8558" class="st4"/>
			<text x="33.79" y="536.24" class="st5" v:langID="2052"><v:paragraph v:horizAlign="1"/><v:tabList/>拷贝数据报</text>		</g>
		<g id="shape15-59" v:mID="15" v:groupContext="shape" transform="translate(487.674,-117.345)">
			<title>工作表.15</title>
			<desc>拷贝完成</desc>
			<v:textBlock v:margins="rect(4,4,4,4)" v:tabSpace="42.5197"/>
			<v:textRect cx="63.7864" cy="532.569" width="127.58" height="20.8558"/>
			<rect x="0" y="522.141" width="127.573" height="20.8558" class="st4"/>
			<text x="39.79" y="536.24" class="st5" v:langID="2052"><v:paragraph v:horizAlign="1"/><v:tabList/>拷贝完成</text>		</g>
		<g id="shape17-62" v:mID="17" v:groupContext="shape" v:layerMember="0" transform="translate(559.794,-211.518)">
			<title>动态连接线.17</title>
			<v:userDefs>
				<v:ud v:nameU="msvThemeColors" v:val="VT0(254):26"/>
			</v:userDefs>
			<path d="M-6.76 543 L-7.36 611.78" class="st8"/>
		</g>
		<g id="shape18-67" v:mID="18" v:groupContext="shape" v:layerMember="0" transform="translate(487.674,-135.854)">
			<title>动态连接线.18</title>
			<v:userDefs>
				<v:ud v:nameU="msvThemeColors" v:val="VT0(254):26"/>
			</v:userDefs>
			<path d="M0 549.94 L-163.53 550.22" class="st8"/>
		</g>
		<g id="shape19-72" v:mID="19" v:groupContext="shape" transform="translate(320.583,-137.619)">
			<title>工作表.19</title>
			<desc>返回成功指示</desc>
			<v:textBlock v:margins="rect(4,4,4,4)" v:tabSpace="42.5197"/>
			<v:textRect cx="82.4186" cy="532.569" width="164.84" height="20.8558"/>
			<rect x="0" y="522.141" width="164.837" height="20.8558" class="st4"/>
			<text x="46.42" y="536.24" class="st5" v:langID="2052"><v:paragraph v:horizAlign="1"/><v:tabList/>返回成功指示</text>		</g>
		<g id="shape20-75" v:mID="20" v:groupContext="shape" transform="translate(630.19,-374.563)">
			<title>工作表.20</title>
			<desc>等待数据</desc>
			<v:textBlock v:margins="rect(4,4,4,4)" v:tabSpace="42.5197"/>
			<v:textRect cx="63.7864" cy="532.569" width="127.58" height="20.8558"/>
			<rect x="0" y="522.141" width="127.573" height="20.8558" class="st4"/>
			<text x="39.79" y="536.24" class="st5" v:langID="2052"><v:paragraph v:horizAlign="1"/><v:tabList/>等待数据</text>		</g>
		<g id="shape21-78" v:mID="21" v:groupContext="shape" transform="translate(662.126,-164.991)">
			<title>工作表.21</title>
			<desc>将数据从内核拷贝到用户空间</desc>
			<v:textBlock v:margins="rect(4,4,4,4)" v:tabSpace="42.5197"/>
			<v:textRect cx="63.7864" cy="532.569" width="127.58" height="20.8558"/>
			<rect x="0" y="522.141" width="127.573" height="20.8558" class="st4"/>
			<text x="9.79" y="528.83" class="st5" v:langID="2052"><v:paragraph v:horizAlign="1"/><v:tabList/>将数据从内核拷贝到<tspan
						x="39.79" dy="1.218em" class="st6">用户空间</tspan></text>		</g>
		<g id="shape22-82" v:mID="22" v:groupContext="shape" transform="translate(320.156,-0.25)">
			<title>工作表.22</title>
			<desc>I/O 复用模型</desc>
			<v:textBlock v:margins="rect(4,4,4,4)" v:tabSpace="42.5197"/>
			<v:textRect cx="82.4186" cy="532.569" width="164.84" height="20.8558"/>
			<rect x="0" y="522.141" width="164.837" height="20.8558" class="st4"/>
			<text x="45.22" y="536.24" class="st7" v:langID="2052"><v:paragraph v:horizAlign="1"/><v:tabList/>I/O <tspan
						class="st10">复用模型</tspan></text>		</g>
		<g id="shape24-86" v:mID="24" v:groupContext="shape" transform="translate(316.262,-295.844)">
			<title>工作表.24</title>
			<desc>返回可读条件</desc>
			<v:textBlock v:margins="rect(4,4,4,4)" v:tabSpace="42.5197"/>
			<v:textRect cx="82.4186" cy="532.569" width="164.84" height="20.8558"/>
			<rect x="0" y="522.141" width="164.837" height="20.8558" class="st4"/>
			<text x="46.42" y="536.24" class="st5" v:langID="2052"><v:paragraph v:horizAlign="1"/><v:tabList/>返回可读条件</text>		</g>
		<g id="shape36-89" v:mID="36" v:groupContext="shape" transform="translate(160.314,-258.61)">
			<title>左括号.36</title>
			<v:userDefs>
				<v:ud v:nameU="visVersion" v:prompt="" v:val="VT0(15):26"/>
			</v:userDefs>
			<g id="shadow36-90" v:groupContext="shadow" v:shadowOffsetX="0.3456" v:shadowOffsetY="-1.9728" v:shadowType="1"
					transform="matrix(1,0,0,1,0.3456,1.9728)" class="st1">
				<path d="M30.74 543 A41.1553 40.1301 0 0 1 15.37 519.02 L15.37 423.1 L0 423.1 L15.37 423.1 L15.37 327.18 A41.1553
							 40.1301 0 0 1 30.74 303.2" class="st2"/>
			</g>
			<path d="M30.74 543 A41.1553 40.1301 0 0 1 15.37 519.02 L15.37 423.1 L0 423.1 L15.37 423.1 L15.37 327.18 A41.1553 40.1301
						 0 0 1 30.74 303.2" class="st3"/>
		</g>
		<g id="shape37-97" v:mID="37" v:groupContext="shape" transform="translate(0.25,-368.081)">
			<title>工作表.37</title>
			<desc>进程受阻塞与 select 调用等待可能多个套接字中的任一个变为可读</desc>
			<v:textBlock v:margins="rect(4,4,4,4)" v:tabSpace="42.5197"/>
			<v:textRect cx="82.4186" cy="532.569" width="164.84" height="20.8558"/>
			<rect x="0" y="522.141" width="164.837" height="20.8558" class="st4"/>
			<text x="14.03" y="521.7" class="st5" v:langID="2052"><v:paragraph v:horizAlign="1"/><v:tabList/>进程受阻塞与<tspan
						class="st11"> </tspan><tspan class="st11">select </tspan>调<tspan x="4.42" dy="1.206em" class="st6">用</tspan>，等待可能多个套接字中的<tspan
						x="40.42" dy="1.218em" class="st6">任一个变为可读</tspan></text>		</g>
		<g id="shape38-104" v:mID="38" v:groupContext="shape" v:layerMember="0" transform="translate(310.148,-220.106)">
			<title>动态连接线.38</title>
			<v:userDefs>
				<v:ud v:nameU="msvThemeColors" v:val="VT0(254):26"/>
			</v:userDefs>
			<path d="M0 536.5 L158.92 535.36" class="st8"/>
		</g>
		<g id="shape39-109" v:mID="39" v:groupContext="shape" transform="translate(307.21,-235.305)">
			<title>工作表.39</title>
			<desc>系统调用</desc>
			<v:textBlock v:margins="rect(4,4,4,4)" v:tabSpace="42.5197"/>
			<v:textRect cx="82.4186" cy="532.569" width="164.84" height="20.8558"/>
			<rect x="0" y="522.141" width="164.837" height="20.8558" class="st4"/>
			<text x="58.42" y="536.24" class="st5" v:langID="2052"><v:paragraph v:horizAlign="1"/><v:tabList/>系统调用</text>		</g>
		<g id="shape40-112" v:mID="40" v:groupContext="shape" transform="translate(182.575,-217.594)">
			<title>工作表.40</title>
			<desc>recvfrom</desc>
			<v:textBlock v:margins="rect(4,4,4,4)" v:tabSpace="42.5197"/>
			<v:textRect cx="63.7864" cy="532.569" width="127.58" height="20.8558"/>
			<rect x="0" y="522.141" width="127.573" height="20.8558" class="st4"/>
			<text x="37.39" y="536.17" class="st7" v:langID="2052"><v:paragraph v:horizAlign="1"/><v:tabList/>recvfrom</text>		</g>
		<g id="shape41-115" v:mID="41" v:groupContext="shape" v:layerMember="0" transform="translate(557.317,-468.849)">
			<title>动态连接线.41</title>
			<v:userDefs>
				<v:ud v:nameU="msvThemeColors" v:val="VT0(254):26"/>
			</v:userDefs>
			<path d="M-6.78 543 L-7.37 689.98" class="st8"/>
		</g>
		<g id="shape42-120" v:mID="42" v:groupContext="shape" v:layerMember="0" transform="translate(482.462,-298.635)">
			<title>动态连接线.42</title>
			<v:userDefs>
				<v:ud v:nameU="msvThemeColors" v:val="VT0(254):26"/>
			</v:userDefs>
			<path d="M0 549.94 L-163.53 550.22" class="st8"/>
		</g>
	</g>
</svg>
