<?xml version="1.0" encoding="UTF-8" standalone="no"?>
<!DOCTYPE svg PUBLIC "-//W3C//DTD SVG 1.1//EN" "http://www.w3.org/Graphics/SVG/1.1/DTD/svg11.dtd">
<!-- 由 Microsoft Visio, SVG Export 生成 3.svg Page-1 -->
<svg xmlns="http://www.w3.org/2000/svg" xmlns:xlink="http://www.w3.org/1999/xlink" xmlns:ev="http://www.w3.org/2001/xml-events"
		xmlns:v="http://schemas.microsoft.com/visio/2003/SVGExtensions/" width="11.6929in" height="8.26772in"
		viewBox="0 0 841.89 595.276" xml:space="preserve" color-interpolation-filters="sRGB" class="st12">
	<v:documentProperties v:langID="2052" v:metric="true" v:viewMarkup="false">
		<v:userDefs>
			<v:ud v:nameU="msvSubprocessMaster" v:prompt="" v:val="VT4(Rectangle)"/>
			<v:ud v:nameU="msvNoAutoConnect" v:val="VT0(1):26"/>
			<v:ud v:nameU="msvConvertTheme"/>
		</v:userDefs>
	</v:documentProperties>

	<style type="text/css">
	<![CDATA[
		.st1 {visibility:visible}
		.st2 {fill:none;filter:url(#filter_2);stroke:#5b9bd5;stroke-opacity:0.22}
		.st3 {stroke:#000000;stroke-width:0.25}
		.st4 {fill:none;stroke:none;stroke-width:0.25}
		.st5 {fill:#000000;font-family:微软雅黑;font-size:1.00001em}
		.st6 {font-size:1em}
		.st7 {fill:#000000;font-family:Consolas;font-size:1.00001em}
		.st8 {marker-end:url(#mrkr4-47);stroke:#000000;stroke-linecap:round;stroke-linejoin:round;stroke-width:0.25}
		.st9 {fill:#000000;fill-opacity:1;stroke:#000000;stroke-opacity:1;stroke-width:0.090252707581227}
		.st10 {font-family:微软雅黑;font-size:1em}
		.st11 {font-family:Consolas;font-size:1em}
		.st12 {fill:none;fill-rule:evenodd;font-size:12px;overflow:visible;stroke-linecap:square;stroke-miterlimit:3}
	]]>
	</style>

	<defs id="Markers">
		<g id="lend4">
			<path d="M 2 1 L 0 0 L 2 -1 L 2 1 " style="stroke:none"/>
		</g>
		<marker id="mrkr4-47" class="st9" v:arrowType="4" v:arrowSize="2" v:setback="22.16" refX="-22.16" orient="auto"
				markerUnits="strokeWidth" overflow="visible">
			<use xlink:href="#lend4" transform="scale(-11.08,-11.08) "/>
		</marker>
	</defs>
	<defs id="Filters">
		<filter id="filter_2">
			<feGaussianBlur stdDeviation="2"/>
		</filter>
	</defs>
	<g v:mID="0" v:index="1" v:groupContext="foregroundPage">
		<v:userDefs>
			<v:ud v:nameU="msvThemeOrder" v:val="VT0(0):26"/>
		</v:userDefs>
		<title>页-1</title>
		<v:pageProperties v:drawingScale="0.0393701" v:pageScale="0.0393701" v:drawingUnits="24" v:shadowOffsetX="8.50394"
				v:shadowOffsetY="-8.50394"/>
		<v:layer v:name="连接线" v:index="0"/>
		<g id="shape1-1" v:mID="1" v:groupContext="shape" transform="translate(169.737,-201.106)">
			<title>左括号</title>
			<v:userDefs>
				<v:ud v:nameU="visVersion" v:prompt="" v:val="VT0(15):26"/>
			</v:userDefs>
			<g id="shadow1-2" v:groupContext="shadow" v:shadowOffsetX="0.3456" v:shadowOffsetY="-1.9728" v:shadowType="1"
					transform="matrix(1,0,0,1,0.3456,1.9728)" class="st1">
				<path d="M22.86 595.28 A30.6037 22.2294 0 0 1 11.43 581.99 L11.43 528.86 L0 528.86 L11.43 528.86 L11.43 475.73 A30.6037
							 22.2294 0 0 1 22.86 462.44" class="st2"/>
			</g>
			<path d="M22.86 595.28 A30.6037 22.2294 0 0 1 11.43 581.99 L11.43 528.86 L0 528.86 L11.43 528.86 L11.43 475.73 A30.6037
						 22.2294 0 0 1 22.86 462.44" class="st3"/>
		</g>
		<g id="shape2-9" v:mID="2" v:groupContext="shape" transform="translate(518.008,-340.901)">
			<title>右括号</title>
			<v:userDefs>
				<v:ud v:nameU="visVersion" v:prompt="" v:val="VT0(15):26"/>
			</v:userDefs>
			<g id="shadow2-10" v:groupContext="shadow" v:shadowOffsetX="0.3456" v:shadowOffsetY="-1.9728" v:shadowType="1"
					transform="matrix(1,0,0,1,0.3456,1.9728)" class="st1">
				<path d="M0 595.28 A30.6037 29.6961 -180 0 0 11.43 577.53 L11.43 506.55 L22.86 506.55 L11.43 506.55 L11.43 435.57
							 A30.6037 29.6961 -180 0 0 0 417.83" class="st2"/>
			</g>
			<path d="M0 595.28 A30.6037 29.6961 -180 0 0 11.43 577.53 L11.43 506.55 L22.86 506.55 L11.43 506.55 L11.43 435.57 A30.6037
						 29.6961 -180 0 0 0 417.83" class="st3"/>
		</g>
		<g id="shape3-17" v:mID="3" v:groupContext="shape" transform="translate(518.008,-201.142)">
			<title>右括号.3</title>
			<v:userDefs>
				<v:ud v:nameU="visVersion" v:prompt="" v:val="VT0(15):26"/>
			</v:userDefs>
			<g id="shadow3-18" v:groupContext="shadow" v:shadowOffsetX="0.3456" v:shadowOffsetY="-1.9728" v:shadowType="1"
					transform="matrix(1,0,0,1,0.3456,1.9728)" class="st1">
				<path d="M0 595.28 A30.6037 22.2294 -180 0 0 11.43 581.99 L11.43 528.86 L22.86 528.86 L11.43 528.86 L11.43 475.73
							 A30.6037 22.2294 -180 0 0 0 462.44" class="st2"/>
			</g>
			<path d="M0 595.28 A30.6037 22.2294 -180 0 0 11.43 581.99 L11.43 528.86 L22.86 528.86 L11.43 528.86 L11.43 475.73 A30.6037
						 22.2294 -180 0 0 0 462.44" class="st3"/>
		</g>
		<g id="shape5-25" v:mID="5" v:groupContext="shape" transform="translate(49.5748,-259.458)">
			<title>工作表.5</title>
			<desc>数据拷贝到应用缓冲区期间进程阻塞</desc>
			<v:textBlock v:margins="rect(4,4,4,4)" v:tabSpace="42.5197"/>
			<v:textRect cx="61.2877" cy="587.211" width="122.58" height="16.1283"/>
			<rect x="0" y="579.147" width="122.575" height="16.1283" class="st4"/>
			<text x="7.29" y="583.47" class="st5" v:langID="2052"><v:paragraph v:horizAlign="1"/><v:tabList/>数据拷贝到应用缓冲<tspan
						x="19.29" dy="1.218em" class="st6">区期间进程阻塞</tspan></text>		</g>
		<g id="shape6-29" v:mID="6" v:groupContext="shape" transform="translate(172.159,-532.874)">
			<title>工作表.6</title>
			<desc>应用进程</desc>
			<v:textBlock v:margins="rect(4,4,4,4)" v:tabSpace="42.5197"/>
			<v:textRect cx="61.2877" cy="587.211" width="122.58" height="16.1283"/>
			<rect x="0" y="579.147" width="122.575" height="16.1283" class="st4"/>
			<text x="37.29" y="590.88" class="st5" v:langID="2052"><v:paragraph v:horizAlign="1"/><v:tabList/>应用进程</text>		</g>
		<g id="shape7-32" v:mID="7" v:groupContext="shape" transform="translate(399.573,-535.494)">
			<title>工作表.7</title>
			<desc>内核</desc>
			<v:textBlock v:margins="rect(4,4,4,4)" v:tabSpace="42.5197"/>
			<v:textRect cx="61.2877" cy="587.211" width="122.58" height="16.1283"/>
			<rect x="0" y="579.147" width="122.575" height="16.1283" class="st4"/>
			<text x="49.29" y="590.88" class="st5" v:langID="2052"><v:paragraph v:horizAlign="1"/><v:tabList/>内核</text>		</g>
		<g id="shape8-35" v:mID="8" v:groupContext="shape" transform="translate(186.154,-499.601)">
			<title>工作表.8</title>
			<desc>select</desc>
			<v:textBlock v:margins="rect(4,4,4,4)" v:tabSpace="42.5197"/>
			<v:textRect cx="47.4326" cy="587.211" width="94.87" height="16.1283"/>
			<rect x="0" y="579.147" width="94.8652" height="16.1283" class="st4"/>
			<text x="27.64" y="590.81" class="st7" v:langID="2052"><v:paragraph v:horizAlign="1"/><v:tabList/>select</text>		</g>
		<g id="shape9-38" v:mID="9" v:groupContext="shape" transform="translate(416.031,-502.221)">
			<title>工作表.9</title>
			<desc>无数据报准备好</desc>
			<v:textBlock v:margins="rect(4,4,4,4)" v:tabSpace="42.5197"/>
			<v:textRect cx="41.7178" cy="587.211" width="83.44" height="16.1283"/>
			<rect x="0" y="579.147" width="83.4356" height="16.1283" class="st4"/>
			<text x="5.72" y="583.47" class="st5" v:langID="2052"><v:paragraph v:horizAlign="1"/><v:tabList/>无数据报准备<tspan x="35.72"
						dy="1.218em" class="st6">好</tspan></text>		</g>
		<g id="shape10-42" v:mID="10" v:groupContext="shape" v:layerMember="0" transform="translate(281.019,-501.205)">
			<title>动态连接线</title>
			<v:userDefs>
				<v:ud v:nameU="msvThemeColors" v:val="VT0(254):26"/>
			</v:userDefs>
			<path d="M0 588.65 L116.76 587.77" class="st8"/>
		</g>
		<g id="shape11-48" v:mID="11" v:groupContext="shape" transform="translate(277.708,-516.238)">
			<title>工作表.11</title>
			<desc>系统调用</desc>
			<v:textBlock v:margins="rect(4,4,4,4)" v:tabSpace="42.5197"/>
			<v:textRect cx="61.2877" cy="587.211" width="122.58" height="16.1283"/>
			<rect x="0" y="579.147" width="122.575" height="16.1283" class="st4"/>
			<text x="37.29" y="590.88" class="st5" v:langID="2052"><v:paragraph v:horizAlign="1"/><v:tabList/>系统调用</text>		</g>
		<g id="shape12-51" v:mID="12" v:groupContext="shape" transform="translate(415.142,-350.354)">
			<title>工作表.12</title>
			<desc>数据报准备好</desc>
			<v:textBlock v:margins="rect(4,4,4,4)" v:tabSpace="42.5197"/>
			<v:textRect cx="47.4326" cy="587.211" width="94.87" height="16.1283"/>
			<rect x="0" y="579.147" width="94.8652" height="16.1283" class="st4"/>
			<text x="11.43" y="590.88" class="st5" v:langID="2052"><v:paragraph v:horizAlign="1"/><v:tabList/>数据报准备好</text>		</g>
		<g id="shape13-54" v:mID="13" v:groupContext="shape" transform="translate(190.92,-201.106)">
			<title>工作表.13</title>
			<desc>处理数据报</desc>
			<v:textBlock v:margins="rect(4,4,4,4)" v:tabSpace="42.5197"/>
			<v:textRect cx="47.4326" cy="587.211" width="94.87" height="16.1283"/>
			<rect x="0" y="579.147" width="94.8652" height="16.1283" class="st4"/>
			<text x="17.43" y="590.88" class="st5" v:langID="2052"><v:paragraph v:horizAlign="1"/><v:tabList/>处理数据报</text>		</g>
		<g id="shape14-57" v:mID="14" v:groupContext="shape" transform="translate(415.142,-298.839)">
			<title>工作表.14</title>
			<desc>拷贝数据报</desc>
			<v:textBlock v:margins="rect(4,4,4,4)" v:tabSpace="42.5197"/>
			<v:textRect cx="47.4326" cy="587.211" width="94.87" height="16.1283"/>
			<rect x="0" y="579.147" width="94.8652" height="16.1283" class="st4"/>
			<text x="17.43" y="590.88" class="st5" v:langID="2052"><v:paragraph v:horizAlign="1"/><v:tabList/>拷贝数据报</text>		</g>
		<g id="shape15-60" v:mID="15" v:groupContext="shape" transform="translate(412.031,-222.647)">
			<title>工作表.15</title>
			<desc>拷贝完成</desc>
			<v:textBlock v:margins="rect(4,4,4,4)" v:tabSpace="42.5197"/>
			<v:textRect cx="47.4326" cy="587.211" width="94.87" height="16.1283"/>
			<rect x="0" y="579.147" width="94.8652" height="16.1283" class="st4"/>
			<text x="23.43" y="590.88" class="st5" v:langID="2052"><v:paragraph v:horizAlign="1"/><v:tabList/>拷贝完成</text>		</g>
		<g id="shape17-63" v:mID="17" v:groupContext="shape" v:layerMember="0" transform="translate(467.477,-295.473)">
			<title>动态连接线.17</title>
			<v:userDefs>
				<v:ud v:nameU="msvThemeColors" v:val="VT0(254):26"/>
			</v:userDefs>
			<path d="M-6.85 595.28 L-7.28 647.21" class="st8"/>
		</g>
		<g id="shape18-68" v:mID="18" v:groupContext="shape" v:layerMember="0" transform="translate(412.031,-238.567)">
			<title>动态连接线.18</title>
			<v:userDefs>
				<v:ud v:nameU="msvThemeColors" v:val="VT0(254):26"/>
			</v:userDefs>
			<path d="M0 602.25 L-120.18 602.47" class="st8"/>
		</g>
		<g id="shape19-73" v:mID="19" v:groupContext="shape" transform="translate(287.779,-238.326)">
			<title>工作表.19</title>
			<desc>返回成功指示</desc>
			<v:textBlock v:margins="rect(4,4,4,4)" v:tabSpace="42.5197"/>
			<v:textRect cx="61.2877" cy="587.211" width="122.58" height="16.1283"/>
			<rect x="0" y="579.147" width="122.575" height="16.1283" class="st4"/>
			<text x="25.29" y="590.88" class="st5" v:langID="2052"><v:paragraph v:horizAlign="1"/><v:tabList/>返回成功指示</text>		</g>
		<g id="shape20-76" v:mID="20" v:groupContext="shape" transform="translate(518.008,-421.561)">
			<title>工作表.20</title>
			<desc>等待数据</desc>
			<v:textBlock v:margins="rect(4,4,4,4)" v:tabSpace="42.5197"/>
			<v:textRect cx="47.4326" cy="587.211" width="94.87" height="16.1283"/>
			<rect x="0" y="579.147" width="94.8652" height="16.1283" class="st4"/>
			<text x="23.43" y="590.88" class="st5" v:langID="2052"><v:paragraph v:horizAlign="1"/><v:tabList/>等待数据</text>		</g>
		<g id="shape21-79" v:mID="21" v:groupContext="shape" transform="translate(541.756,-259.493)">
			<title>工作表.21</title>
			<desc>将数据从内核拷贝到用户空间</desc>
			<v:textBlock v:margins="rect(4,4,4,4)" v:tabSpace="42.5197"/>
			<v:textRect cx="47.4326" cy="587.211" width="94.87" height="16.1283"/>
			<rect x="0" y="579.147" width="94.8652" height="16.1283" class="st4"/>
			<text x="5.43" y="583.47" class="st5" v:langID="2052"><v:paragraph v:horizAlign="1"/><v:tabList/>将数据从内核拷<tspan
						x="11.43" dy="1.218em" class="st6">贝到用户空间</tspan></text>		</g>
		<g id="shape22-83" v:mID="22" v:groupContext="shape" transform="translate(287.462,-132.094)">
			<title>工作表.22</title>
			<desc>I/O 复用模型</desc>
			<v:textBlock v:margins="rect(4,4,4,4)" v:tabSpace="42.5197"/>
			<v:textRect cx="61.2877" cy="587.211" width="122.58" height="16.1283"/>
			<rect x="0" y="579.147" width="122.575" height="16.1283" class="st4"/>
			<text x="24.09" y="590.88" class="st7" v:langID="2052"><v:paragraph v:horizAlign="1"/><v:tabList/>I/O <tspan
						class="st10">复用模型</tspan></text>		</g>
		<g id="shape24-87" v:mID="24" v:groupContext="shape" transform="translate(284.566,-360.685)">
			<title>工作表.24</title>
			<desc>返回可读条件</desc>
			<v:textBlock v:margins="rect(4,4,4,4)" v:tabSpace="42.5197"/>
			<v:textRect cx="61.2877" cy="587.211" width="122.58" height="16.1283"/>
			<rect x="0" y="579.147" width="122.575" height="16.1283" class="st4"/>
			<text x="25.29" y="590.88" class="st5" v:langID="2052"><v:paragraph v:horizAlign="1"/><v:tabList/>返回可读条件</text>		</g>
		<g id="shape36-90" v:mID="36" v:groupContext="shape" transform="translate(168.601,-331.892)">
			<title>左括号.36</title>
			<v:userDefs>
				<v:ud v:nameU="visVersion" v:prompt="" v:val="VT0(15):26"/>
			</v:userDefs>
			<g id="shadow36-91" v:groupContext="shadow" v:shadowOffsetX="0.3456" v:shadowOffsetY="-1.9728" v:shadowType="1"
					transform="matrix(1,0,0,1,0.3456,1.9728)" class="st1">
				<path d="M22.86 595.28 A30.6037 31.0337 0 0 1 11.43 576.73 L11.43 502.55 L0 502.55 L11.43 502.55 L11.43 428.38 A30.6037
							 31.0337 0 0 1 22.86 409.83" class="st2"/>
			</g>
			<path d="M22.86 595.28 A30.6037 31.0337 0 0 1 11.43 576.73 L11.43 502.55 L0 502.55 L11.43 502.55 L11.43 428.38 A30.6037
						 31.0337 0 0 1 22.86 409.83" class="st3"/>
		</g>
		<g id="shape37-98" v:mID="37" v:groupContext="shape" transform="translate(49.5748,-416.548)">
			<title>工作表.37</title>
			<desc>进程受阻塞与 select 调用等待可能多个套接字中的任一个变为可读</desc>
			<v:textBlock v:margins="rect(4,4,4,4)" v:tabSpace="42.5197"/>
			<v:textRect cx="61.2877" cy="587.211" width="122.58" height="16.1283"/>
			<rect x="0" y="579.147" width="122.575" height="16.1283" class="st4"/>
			<text x="25.29" y="569" class="st5" v:langID="2052"><v:paragraph v:horizAlign="1"/><v:tabList/>进程受阻塞与<tspan
						class="st11"> </tspan><tspan x="8.19" dy="1.223em" class="st11">select </tspan>调用，等待<tspan x="7.29"
						dy="1.206em" class="st6">可能多个套接字中的</tspan><tspan x="19.29" dy="1.218em" class="st6">任一个变为可读</tspan></text>		</g>
		<g id="shape38-105" v:mID="38" v:groupContext="shape" v:layerMember="0" transform="translate(280.02,-300.509)">
			<title>动态连接线.38</title>
			<v:userDefs>
				<v:ud v:nameU="msvThemeColors" v:val="VT0(254):26"/>
			</v:userDefs>
			<path d="M0 588.65 L116.76 587.77" class="st8"/>
		</g>
		<g id="shape39-110" v:mID="39" v:groupContext="shape" transform="translate(277.835,-313.869)">
			<title>工作表.39</title>
			<desc>系统调用</desc>
			<v:textBlock v:margins="rect(4,4,4,4)" v:tabSpace="42.5197"/>
			<v:textRect cx="61.2877" cy="587.211" width="122.58" height="16.1283"/>
			<rect x="0" y="579.147" width="122.575" height="16.1283" class="st4"/>
			<text x="37.29" y="590.88" class="st5" v:langID="2052"><v:paragraph v:horizAlign="1"/><v:tabList/>系统调用</text>		</g>
		<g id="shape40-113" v:mID="40" v:groupContext="shape" transform="translate(185.155,-300.172)">
			<title>工作表.40</title>
			<desc>recvfrom</desc>
			<v:textBlock v:margins="rect(4,4,4,4)" v:tabSpace="42.5197"/>
			<v:textRect cx="47.4326" cy="587.211" width="94.87" height="16.1283"/>
			<rect x="0" y="579.147" width="94.8652" height="16.1283" class="st4"/>
			<text x="21.04" y="590.81" class="st7" v:langID="2052"><v:paragraph v:horizAlign="1"/><v:tabList/>recvfrom</text>		</g>
		<g id="shape41-116" v:mID="41" v:groupContext="shape" v:layerMember="0" transform="translate(465.636,-494.474)">
			<title>动态连接线.41</title>
			<v:userDefs>
				<v:ud v:nameU="msvThemeColors" v:val="VT0(254):26"/>
			</v:userDefs>
			<path d="M-6.86 595.28 L-7.29 707.69" class="st8"/>
		</g>
		<g id="shape42-121" v:mID="42" v:groupContext="shape" v:layerMember="0" transform="translate(408.155,-364.45)">
			<title>动态连接线.42</title>
			<v:userDefs>
				<v:ud v:nameU="msvThemeColors" v:val="VT0(254):26"/>
			</v:userDefs>
			<path d="M0 602.25 L-120.18 602.47" class="st8"/>
		</g>
	</g>
</svg>
