<?xml version="1.0" encoding="UTF-8" standalone="no"?>
<!DOCTYPE svg PUBLIC "-//W3C//DTD SVG 1.1//EN" "http://www.w3.org/Graphics/SVG/1.1/DTD/svg11.dtd">
<!-- 由 Microsoft Visio, SVG Export 生成 4.svg Page-1 -->
<svg xmlns="http://www.w3.org/2000/svg" xmlns:xlink="http://www.w3.org/1999/xlink" xmlns:ev="http://www.w3.org/2001/xml-events"
		xmlns:v="http://schemas.microsoft.com/visio/2003/SVGExtensions/" width="11.6929in" height="8.26772in"
		viewBox="0 0 841.89 595.276" xml:space="preserve" color-interpolation-filters="sRGB" class="st11">
	<v:documentProperties v:langID="2052" v:metric="true" v:viewMarkup="false">
		<v:userDefs>
			<v:ud v:nameU="msvSubprocessMaster" v:prompt="" v:val="VT4(Rectangle)"/>
			<v:ud v:nameU="msvNoAutoConnect" v:val="VT0(1):26"/>
			<v:ud v:nameU="msvConvertTheme"/>
		</v:userDefs>
	</v:documentProperties>

	<style type="text/css">
	<![CDATA[
		.st1 {visibility:visible}
		.st2 {fill:none;filter:url(#filter_2);stroke:#5b9bd5;stroke-opacity:0.22}
		.st3 {stroke:#000000;stroke-width:0.25}
		.st4 {fill:none;stroke:none;stroke-width:0.25}
		.st5 {fill:#000000;font-family:微软雅黑;font-size:1.00001em}
		.st6 {font-size:1em}
		.st7 {font-family:Consolas;font-size:1em}
		.st8 {marker-end:url(#mrkr4-46);stroke:#000000;stroke-linecap:round;stroke-linejoin:round;stroke-width:0.25}
		.st9 {fill:#000000;fill-opacity:1;stroke:#000000;stroke-opacity:1;stroke-width:0.090252707581227}
		.st10 {fill:#000000;font-family:Consolas;font-size:1.00001em}
		.st11 {fill:none;fill-rule:evenodd;font-size:12px;overflow:visible;stroke-linecap:square;stroke-miterlimit:3}
	]]>
	</style>

	<defs id="Markers">
		<g id="lend4">
			<path d="M 2 1 L 0 0 L 2 -1 L 2 1 " style="stroke:none"/>
		</g>
		<marker id="mrkr4-46" class="st9" v:arrowType="4" v:arrowSize="2" v:setback="22.16" refX="-22.16" orient="auto"
				markerUnits="strokeWidth" overflow="visible">
			<use xlink:href="#lend4" transform="scale(-11.08,-11.08) "/>
		</marker>
	</defs>
	<defs id="Filters">
		<filter id="filter_2">
			<feGaussianBlur stdDeviation="2"/>
		</filter>
	</defs>
	<g v:mID="0" v:index="1" v:groupContext="foregroundPage">
		<v:userDefs>
			<v:ud v:nameU="msvThemeOrder" v:val="VT0(0):26"/>
		</v:userDefs>
		<title>页-1</title>
		<v:pageProperties v:drawingScale="0.0393701" v:pageScale="0.0393701" v:drawingUnits="24" v:shadowOffsetX="8.50394"
				v:shadowOffsetY="-8.50394"/>
		<v:layer v:name="连接线" v:index="0"/>
		<g id="shape1-1" v:mID="1" v:groupContext="shape" transform="translate(187.954,-115.292)">
			<title>左括号</title>
			<v:userDefs>
				<v:ud v:nameU="visVersion" v:prompt="" v:val="VT0(15):26"/>
			</v:userDefs>
			<g id="shadow1-2" v:groupContext="shadow" v:shadowOffsetX="0.3456" v:shadowOffsetY="-1.9728" v:shadowType="1"
					transform="matrix(1,0,0,1,0.3456,1.9728)" class="st1">
				<path d="M30.74 595.28 A41.1553 28.7237 0 0 1 15.37 578.11 L15.37 509.46 L0 509.46 L15.37 509.46 L15.37 440.8 A41.1553
							 28.7237 0 0 1 30.74 423.64" class="st2"/>
			</g>
			<path d="M30.74 595.28 A41.1553 28.7237 0 0 1 15.37 578.11 L15.37 509.46 L0 509.46 L15.37 509.46 L15.37 440.8 A41.1553
						 28.7237 0 0 1 30.74 423.64" class="st3"/>
		</g>
		<g id="shape2-9" v:mID="2" v:groupContext="shape" transform="translate(656.302,-295.927)">
			<title>右括号</title>
			<v:userDefs>
				<v:ud v:nameU="visVersion" v:prompt="" v:val="VT0(15):26"/>
			</v:userDefs>
			<g id="shadow2-10" v:groupContext="shadow" v:shadowOffsetX="0.3456" v:shadowOffsetY="-1.9728" v:shadowType="1"
					transform="matrix(1,0,0,1,0.3456,1.9728)" class="st1">
				<path d="M0 595.28 A41.1553 38.3717 -180 0 0 15.37 572.35 L15.37 480.63 L30.74 480.63 L15.37 480.63 L15.37 388.91
							 A41.1553 38.3717 -180 0 0 0 365.99" class="st2"/>
			</g>
			<path d="M0 595.28 A41.1553 38.3717 -180 0 0 15.37 572.35 L15.37 480.63 L30.74 480.63 L15.37 480.63 L15.37 388.91 A41.1553
						 38.3717 -180 0 0 0 365.99" class="st3"/>
		</g>
		<g id="shape3-17" v:mID="3" v:groupContext="shape" transform="translate(656.302,-115.338)">
			<title>右括号.3</title>
			<v:userDefs>
				<v:ud v:nameU="visVersion" v:prompt="" v:val="VT0(15):26"/>
			</v:userDefs>
			<g id="shadow3-18" v:groupContext="shadow" v:shadowOffsetX="0.3456" v:shadowOffsetY="-1.9728" v:shadowType="1"
					transform="matrix(1,0,0,1,0.3456,1.9728)" class="st1">
				<path d="M0 595.28 A41.1553 28.7237 -180 0 0 15.37 578.11 L15.37 509.46 L30.74 509.46 L15.37 509.46 L15.37 440.8
							 A41.1553 28.7237 -180 0 0 -0 423.64" class="st2"/>
			</g>
			<path d="M0 595.28 A41.1553 28.7237 -180 0 0 15.37 578.11 L15.37 509.46 L30.74 509.46 L15.37 509.46 L15.37 440.8 A41.1553
						 28.7237 -180 0 0 -0 423.64" class="st3"/>
		</g>
		<g id="shape5-25" v:mID="5" v:groupContext="shape" transform="translate(26.3622,-190.691)">
			<title>工作表.5</title>
			<desc>数据拷贝到应用缓冲区期间进程阻塞</desc>
			<v:textBlock v:margins="rect(4,4,4,4)" v:tabSpace="42.5197"/>
			<v:textRect cx="82.4186" cy="584.855" width="164.84" height="20.8402"/>
			<rect x="0" y="574.435" width="164.837" height="20.8402" class="st4"/>
			<text x="4.42" y="581.12" class="st5" v:langID="2052"><v:paragraph v:horizAlign="1"/><v:tabList/>数据拷贝到应用缓冲区期间进<tspan
						x="64.42" dy="1.218em" class="st6">程阻塞</tspan></text>		</g>
		<g id="shape6-29" v:mID="6" v:groupContext="shape" transform="translate(191.211,-543.986)">
			<title>工作表.6</title>
			<desc>应用进程</desc>
			<v:textBlock v:margins="rect(4,4,4,4)" v:tabSpace="42.5197"/>
			<v:textRect cx="82.4186" cy="584.855" width="164.84" height="20.8402"/>
			<rect x="0" y="574.435" width="164.837" height="20.8402" class="st4"/>
			<text x="58.42" y="588.53" class="st5" v:langID="2052"><v:paragraph v:horizAlign="1"/><v:tabList/>应用进程</text>		</g>
		<g id="shape7-32" v:mID="7" v:groupContext="shape" transform="translate(497.033,-547.371)">
			<title>工作表.7</title>
			<desc>内核</desc>
			<v:textBlock v:margins="rect(4,4,4,4)" v:tabSpace="42.5197"/>
			<v:textRect cx="82.4186" cy="584.855" width="164.84" height="20.8402"/>
			<rect x="0" y="574.435" width="164.837" height="20.8402" class="st4"/>
			<text x="70.42" y="588.53" class="st5" v:langID="2052"><v:paragraph v:horizAlign="1"/><v:tabList/>内核</text>		</g>
		<g id="shape8-35" v:mID="8" v:groupContext="shape" transform="translate(210.031,-500.992)">
			<title>工作表.8</title>
			<desc>建立 SIGIO 的信号处理程序</desc>
			<v:textBlock v:margins="rect(4,4,4,4)" v:tabSpace="42.5197"/>
			<v:textRect cx="63.7864" cy="584.855" width="127.58" height="20.8402"/>
			<rect x="0" y="574.435" width="127.573" height="20.8402" class="st4"/>
			<text x="4.69" y="581.19" class="st5" v:langID="2052"><v:paragraph v:horizAlign="1"/><v:tabList/>建立<tspan class="st7"> </tspan><tspan
						class="st7">SIGIO </tspan>的信号处<tspan x="45.79" dy="1.223em" class="st6">理程序</tspan></text>		</g>
		<g id="shape10-41" v:mID="10" v:groupContext="shape" v:layerMember="0" transform="translate(337.604,-505.134)">
			<title>动态连接线</title>
			<v:userDefs>
				<v:ud v:nameU="msvThemeColors" v:val="VT0(254):26"/>
			</v:userDefs>
			<path d="M0 588.78 L158.92 587.64" class="st8"/>
		</g>
		<g id="shape11-47" v:mID="11" v:groupContext="shape" transform="translate(333.152,-522.489)">
			<title>工作表.11</title>
			<desc>系统调用 sigaction</desc>
			<v:textBlock v:margins="rect(4,4,4,4)" v:tabSpace="42.5197"/>
			<v:textRect cx="82.4186" cy="584.855" width="164.84" height="20.8402"/>
			<rect x="0" y="574.435" width="164.837" height="20.8402" class="st4"/>
			<text x="25.43" y="588.53" class="st5" v:langID="2052"><v:paragraph v:horizAlign="1"/><v:tabList/>系统调用<tspan
						class="st7"> </tspan><tspan class="st7">sigaction</tspan></text>		</g>
		<g id="shape12-52" v:mID="12" v:groupContext="shape" transform="translate(517.97,-308.142)">
			<title>工作表.12</title>
			<desc>数据报准备好</desc>
			<v:textBlock v:margins="rect(4,4,4,4)" v:tabSpace="42.5197"/>
			<v:textRect cx="63.7864" cy="584.855" width="127.58" height="20.8402"/>
			<rect x="0" y="574.435" width="127.573" height="20.8402" class="st4"/>
			<text x="27.79" y="588.53" class="st5" v:langID="2052"><v:paragraph v:horizAlign="1"/><v:tabList/>数据报准备好</text>		</g>
		<g id="shape13-55" v:mID="13" v:groupContext="shape" transform="translate(216.441,-115.292)">
			<title>工作表.13</title>
			<desc>处理数据报</desc>
			<v:textBlock v:margins="rect(4,4,4,4)" v:tabSpace="42.5197"/>
			<v:textRect cx="63.7864" cy="584.855" width="127.58" height="20.8402"/>
			<rect x="0" y="574.435" width="127.573" height="20.8402" class="st4"/>
			<text x="33.79" y="588.53" class="st5" v:langID="2052"><v:paragraph v:horizAlign="1"/><v:tabList/>处理数据报</text>		</g>
		<g id="shape14-58" v:mID="14" v:groupContext="shape" transform="translate(517.97,-241.577)">
			<title>工作表.14</title>
			<desc>拷贝数据报</desc>
			<v:textBlock v:margins="rect(4,4,4,4)" v:tabSpace="42.5197"/>
			<v:textRect cx="63.7864" cy="584.855" width="127.58" height="20.8402"/>
			<rect x="0" y="574.435" width="127.573" height="20.8402" class="st4"/>
			<text x="33.79" y="588.53" class="st5" v:langID="2052"><v:paragraph v:horizAlign="1"/><v:tabList/>拷贝数据报</text>		</g>
		<g id="shape15-61" v:mID="15" v:groupContext="shape" transform="translate(513.786,-143.126)">
			<title>工作表.15</title>
			<desc>拷贝完成</desc>
			<v:textBlock v:margins="rect(4,4,4,4)" v:tabSpace="42.5197"/>
			<v:textRect cx="63.7864" cy="584.855" width="127.58" height="20.8402"/>
			<rect x="0" y="574.435" width="127.573" height="20.8402" class="st4"/>
			<text x="39.79" y="588.53" class="st5" v:langID="2052"><v:paragraph v:horizAlign="1"/><v:tabList/>拷贝完成</text>		</g>
		<g id="shape17-64" v:mID="17" v:groupContext="shape" v:layerMember="0" transform="translate(585.906,-237.229)">
			<title>动态连接线.17</title>
			<v:userDefs>
				<v:ud v:nameU="msvThemeColors" v:val="VT0(254):26"/>
			</v:userDefs>
			<path d="M-6.76 595.28 L-7.36 664.01" class="st8"/>
		</g>
		<g id="shape18-69" v:mID="18" v:groupContext="shape" v:layerMember="0" transform="translate(513.786,-161.627)">
			<title>动态连接线.18</title>
			<v:userDefs>
				<v:ud v:nameU="msvThemeColors" v:val="VT0(254):26"/>
			</v:userDefs>
			<path d="M0 602.21 L-163.53 602.5" class="st8"/>
		</g>
		<g id="shape19-74" v:mID="19" v:groupContext="shape" transform="translate(346.695,-163.385)">
			<title>工作表.19</title>
			<desc>返回成功指示</desc>
			<v:textBlock v:margins="rect(4,4,4,4)" v:tabSpace="42.5197"/>
			<v:textRect cx="82.4186" cy="584.855" width="164.84" height="20.8402"/>
			<rect x="0" y="574.435" width="164.837" height="20.8402" class="st4"/>
			<text x="46.42" y="588.53" class="st5" v:langID="2052"><v:paragraph v:horizAlign="1"/><v:tabList/>返回成功指示</text>		</g>
		<g id="shape20-77" v:mID="20" v:groupContext="shape" transform="translate(656.302,-400.152)">
			<title>工作表.20</title>
			<desc>等待数据</desc>
			<v:textBlock v:margins="rect(4,4,4,4)" v:tabSpace="42.5197"/>
			<v:textRect cx="63.7864" cy="584.855" width="127.58" height="20.8402"/>
			<rect x="0" y="574.435" width="127.573" height="20.8402" class="st4"/>
			<text x="39.79" y="588.53" class="st5" v:langID="2052"><v:paragraph v:horizAlign="1"/><v:tabList/>等待数据</text>		</g>
		<g id="shape21-80" v:mID="21" v:groupContext="shape" transform="translate(688.238,-190.737)">
			<title>工作表.21</title>
			<desc>将数据从内核拷贝到用户空间</desc>
			<v:textBlock v:margins="rect(4,4,4,4)" v:tabSpace="42.5197"/>
			<v:textRect cx="63.7864" cy="584.855" width="127.58" height="20.8402"/>
			<rect x="0" y="574.435" width="127.573" height="20.8402" class="st4"/>
			<text x="9.79" y="581.12" class="st5" v:langID="2052"><v:paragraph v:horizAlign="1"/><v:tabList/>将数据从内核拷贝到<tspan
						x="39.79" dy="1.218em" class="st6">用户空间</tspan></text>		</g>
		<g id="shape22-84" v:mID="22" v:groupContext="shape" transform="translate(346.268,-26.1189)">
			<title>工作表.22</title>
			<desc>信号驱动 I/O 模型</desc>
			<v:textBlock v:margins="rect(4,4,4,4)" v:tabSpace="42.5197"/>
			<v:textRect cx="82.4186" cy="584.855" width="164.84" height="20.8402"/>
			<rect x="0" y="574.435" width="164.837" height="20.8402" class="st4"/>
			<text x="29.92" y="588.53" class="st5" v:langID="2052"><v:paragraph v:horizAlign="1"/><v:tabList/>信号驱动<tspan
						class="st7"> </tspan><tspan class="st7">I</tspan><tspan class="st7">/</tspan><tspan class="st7">O </tspan>模型</text>		</g>
		<g id="shape24-91" v:mID="24" v:groupContext="shape" transform="translate(342.374,-321.492)">
			<title>工作表.24</title>
			<desc>递交 SIGIO</desc>
			<v:textBlock v:margins="rect(4,4,4,4)" v:tabSpace="42.5197"/>
			<v:textRect cx="82.4186" cy="584.855" width="164.84" height="20.8402"/>
			<rect x="0" y="574.435" width="164.837" height="20.8402" class="st4"/>
			<text x="50.62" y="588.53" class="st5" v:langID="2052"><v:paragraph v:horizAlign="1"/><v:tabList/>递交<tspan class="st7"> </tspan><tspan
						class="st7">SIGIO</tspan></text>		</g>
		<g id="shape36-96" v:mID="36" v:groupContext="shape" transform="translate(186.426,-284.286)">
			<title>左括号.36</title>
			<v:userDefs>
				<v:ud v:nameU="visVersion" v:prompt="" v:val="VT0(15):26"/>
			</v:userDefs>
			<g id="shadow36-97" v:groupContext="shadow" v:shadowOffsetX="0.3456" v:shadowOffsetY="-1.9728" v:shadowType="1"
					transform="matrix(1,0,0,1,0.3456,1.9728)" class="st1">
				<path d="M30.74 595.28 A41.1553 40.1001 0 0 1 15.37 571.31 L15.37 475.47 L0 475.47 L15.37 475.47 L15.37 379.62 A41.1553
							 40.1001 0 0 1 30.74 355.66" class="st2"/>
			</g>
			<path d="M30.74 595.28 A41.1553 40.1001 0 0 1 15.37 571.31 L15.37 475.47 L0 475.47 L15.37 475.47 L15.37 379.62 A41.1553
						 40.1001 0 0 1 30.74 355.66" class="st3"/>
		</g>
		<g id="shape37-104" v:mID="37" v:groupContext="shape" transform="translate(78.0403,-393.675)">
			<title>工作表.37</title>
			<desc>进程继续执行</desc>
			<v:textBlock v:margins="rect(4,4,4,4)" v:tabSpace="42.5197"/>
			<v:textRect cx="56.1013" cy="584.855" width="112.21" height="20.8402"/>
			<rect x="0" y="574.435" width="112.203" height="20.8402" class="st4"/>
			<text x="20.1" y="588.53" class="st5" v:langID="2052"><v:paragraph v:horizAlign="1"/><v:tabList/>进程继续执行</text>		</g>
		<g id="shape38-107" v:mID="38" v:groupContext="shape" v:layerMember="0" transform="translate(336.26,-245.806)">
			<title>动态连接线.38</title>
			<v:userDefs>
				<v:ud v:nameU="msvThemeColors" v:val="VT0(254):26"/>
			</v:userDefs>
			<path d="M0 588.78 L158.92 587.64" class="st8"/>
		</g>
		<g id="shape39-112" v:mID="39" v:groupContext="shape" transform="translate(333.323,-260.999)">
			<title>工作表.39</title>
			<desc>系统调用</desc>
			<v:textBlock v:margins="rect(4,4,4,4)" v:tabSpace="42.5197"/>
			<v:textRect cx="82.4186" cy="584.855" width="164.84" height="20.8402"/>
			<rect x="0" y="574.435" width="164.837" height="20.8402" class="st4"/>
			<text x="58.42" y="588.53" class="st5" v:langID="2052"><v:paragraph v:horizAlign="1"/><v:tabList/>系统调用</text>		</g>
		<g id="shape40-115" v:mID="40" v:groupContext="shape" transform="translate(208.687,-243.3)">
			<title>工作表.40</title>
			<desc>recvfrom</desc>
			<v:textBlock v:margins="rect(4,4,4,4)" v:tabSpace="42.5197"/>
			<v:textRect cx="63.7864" cy="584.855" width="127.58" height="20.8402"/>
			<rect x="0" y="574.435" width="127.573" height="20.8402" class="st4"/>
			<text x="37.39" y="588.46" class="st10" v:langID="2052"><v:paragraph v:horizAlign="1"/><v:tabList/>recvfrom</text>		</g>
		<g id="shape42-118" v:mID="42" v:groupContext="shape" v:layerMember="0" transform="translate(508.574,-324.287)">
			<title>动态连接线.42</title>
			<v:userDefs>
				<v:ud v:nameU="msvThemeColors" v:val="VT0(254):26"/>
			</v:userDefs>
			<path d="M0 602.21 L-94.89 602.21 L-94.89 602.51 L-163.53 602.51" class="st8"/>
		</g>
		<g id="shape43-123" v:mID="43" v:groupContext="shape" v:layerMember="0" transform="translate(503.727,-508.227)">
			<title>动态连接线.43</title>
			<v:userDefs>
				<v:ud v:nameU="msvThemeColors" v:val="VT0(254):26"/>
			</v:userDefs>
			<path d="M0 602.21 L-163.53 602.5" class="st8"/>
		</g>
		<g id="shape45-128" v:mID="45" v:groupContext="shape" transform="translate(344.739,-479.496)">
			<title>工作表.45</title>
			<desc>返回</desc>
			<v:textBlock v:margins="rect(4,4,4,4)" v:tabSpace="42.5197"/>
			<v:textRect cx="82.4186" cy="584.855" width="164.84" height="20.8402"/>
			<rect x="0" y="574.435" width="164.837" height="20.8402" class="st4"/>
			<text x="70.42" y="588.53" class="st5" v:langID="2052"><v:paragraph v:horizAlign="1"/><v:tabList/>返回</text>		</g>
		<g id="shape46-131" v:mID="46" v:groupContext="shape" transform="translate(215.984,-311.072)">
			<title>工作表.46</title>
			<desc>信号处理程序</desc>
			<v:textBlock v:margins="rect(4,4,4,4)" v:tabSpace="42.5197"/>
			<v:textRect cx="63.7864" cy="584.855" width="127.58" height="20.8402"/>
			<rect x="0" y="574.435" width="127.573" height="20.8402" class="st4"/>
			<text x="27.79" y="588.53" class="st5" v:langID="2052"><v:paragraph v:horizAlign="1"/><v:tabList/>信号处理程序</text>		</g>
	</g>
</svg>
