<?xml version="1.0" encoding="UTF-8" standalone="no"?>
<!DOCTYPE svg PUBLIC "-//W3C//DTD SVG 1.1//EN" "http://www.w3.org/Graphics/SVG/1.1/DTD/svg11.dtd">
<!-- 由 Microsoft Visio, SVG Export 生成 4.svg Page-1 -->
<svg xmlns="http://www.w3.org/2000/svg" xmlns:xlink="http://www.w3.org/1999/xlink" xmlns:ev="http://www.w3.org/2001/xml-events"
		xmlns:v="http://schemas.microsoft.com/visio/2003/SVGExtensions/" width="11.6929in" height="8.26772in"
		viewBox="0 0 841.89 595.276" xml:space="preserve" color-interpolation-filters="sRGB" class="st11">
	<v:documentProperties v:langID="2052" v:metric="true" v:viewMarkup="false">
		<v:userDefs>
			<v:ud v:nameU="msvSubprocessMaster" v:prompt="" v:val="VT4(Rectangle)"/>
			<v:ud v:nameU="msvNoAutoConnect" v:val="VT0(1):26"/>
			<v:ud v:nameU="msvConvertTheme"/>
		</v:userDefs>
	</v:documentProperties>

	<style type="text/css">
	<![CDATA[
		.st1 {visibility:visible}
		.st2 {fill:none;filter:url(#filter_2);stroke:#5b9bd5;stroke-opacity:0.22}
		.st3 {stroke:#000000;stroke-width:0.25}
		.st4 {fill:none;stroke:none;stroke-width:0.25}
		.st5 {fill:#000000;font-family:微软雅黑;font-size:1.00001em}
		.st6 {font-size:1em}
		.st7 {font-family:Consolas;font-size:1em}
		.st8 {marker-end:url(#mrkr4-46);stroke:#000000;stroke-linecap:round;stroke-linejoin:round;stroke-width:0.25}
		.st9 {fill:#000000;fill-opacity:1;stroke:#000000;stroke-opacity:1;stroke-width:0.090252707581227}
		.st10 {fill:#000000;font-family:Consolas;font-size:1.00001em}
		.st11 {fill:none;fill-rule:evenodd;font-size:12px;overflow:visible;stroke-linecap:square;stroke-miterlimit:3}
	]]>
	</style>

	<defs id="Markers">
		<g id="lend4">
			<path d="M 2 1 L 0 0 L 2 -1 L 2 1 " style="stroke:none"/>
		</g>
		<marker id="mrkr4-46" class="st9" v:arrowType="4" v:arrowSize="2" v:setback="22.16" refX="-22.16" orient="auto"
				markerUnits="strokeWidth" overflow="visible">
			<use xlink:href="#lend4" transform="scale(-11.08,-11.08) "/>
		</marker>
	</defs>
	<defs id="Filters">
		<filter id="filter_2">
			<feGaussianBlur stdDeviation="2"/>
		</filter>
	</defs>
	<g v:mID="0" v:index="1" v:groupContext="foregroundPage">
		<v:userDefs>
			<v:ud v:nameU="msvThemeOrder" v:val="VT0(0):26"/>
		</v:userDefs>
		<title>页-1</title>
		<v:pageProperties v:drawingScale="0.0393701" v:pageScale="0.0393701" v:drawingUnits="24" v:shadowOffsetX="8.50394"
				v:shadowOffsetY="-8.50394"/>
		<v:layer v:name="连接线" v:index="0"/>
		<g id="shape1-1" v:mID="1" v:groupContext="shape" transform="translate(165.51,-213.437)">
			<title>左括号</title>
			<v:userDefs>
				<v:ud v:nameU="visVersion" v:prompt="" v:val="VT0(15):26"/>
			</v:userDefs>
			<g id="shadow1-2" v:groupContext="shadow" v:shadowOffsetX="0.3456" v:shadowOffsetY="-1.9728" v:shadowType="1"
					transform="matrix(1,0,0,1,0.3456,1.9728)" class="st1">
				<path d="M22.05 595.28 A29.5271 21.4474 0 0 1 11.03 582.46 L11.03 531.2 L0 531.2 L11.03 531.2 L11.03 479.93 A29.5271
							 21.4474 0 0 1 22.05 467.12" class="st2"/>
			</g>
			<path d="M22.05 595.28 A29.5271 21.4474 0 0 1 11.03 582.46 L11.03 531.2 L0 531.2 L11.03 531.2 L11.03 479.93 A29.5271
						 21.4474 0 0 1 22.05 467.12" class="st3"/>
		</g>
		<g id="shape2-9" v:mID="2" v:groupContext="shape" transform="translate(501.528,-348.314)">
			<title>右括号</title>
			<v:userDefs>
				<v:ud v:nameU="visVersion" v:prompt="" v:val="VT0(15):26"/>
			</v:userDefs>
			<g id="shadow2-10" v:groupContext="shadow" v:shadowOffsetX="0.3456" v:shadowOffsetY="-1.9728" v:shadowType="1"
					transform="matrix(1,0,0,1,0.3456,1.9728)" class="st1">
				<path d="M-0 595.28 A29.5271 28.6513 -180 0 0 11.03 578.15 L11.03 509.67 L22.05 509.67 L11.03 509.67 L11.03 441.19
							 A29.5271 28.6513 -180 0 0 -0 424.07" class="st2"/>
			</g>
			<path d="M-0 595.28 A29.5271 28.6513 -180 0 0 11.03 578.15 L11.03 509.67 L22.05 509.67 L11.03 509.67 L11.03 441.19 A29.5271
						 28.6513 -180 0 0 -0 424.07" class="st3"/>
		</g>
		<g id="shape3-17" v:mID="3" v:groupContext="shape" transform="translate(501.528,-213.472)">
			<title>右括号.3</title>
			<v:userDefs>
				<v:ud v:nameU="visVersion" v:prompt="" v:val="VT0(15):26"/>
			</v:userDefs>
			<g id="shadow3-18" v:groupContext="shadow" v:shadowOffsetX="0.3456" v:shadowOffsetY="-1.9728" v:shadowType="1"
					transform="matrix(1,0,0,1,0.3456,1.9728)" class="st1">
				<path d="M0 595.28 A29.5271 21.4474 -180 0 0 11.03 582.46 L11.03 531.2 L22.05 531.2 L11.03 531.2 L11.03 479.93 A29.5271
							 21.4474 -180 0 0 0 467.12" class="st2"/>
			</g>
			<path d="M0 595.28 A29.5271 21.4474 -180 0 0 11.03 582.46 L11.03 531.2 L22.05 531.2 L11.03 531.2 L11.03 479.93 A29.5271
						 21.4474 -180 0 0 0 467.12" class="st3"/>
		</g>
		<g id="shape5-25" v:mID="5" v:groupContext="shape" transform="translate(49.5748,-269.736)">
			<title>工作表.5</title>
			<desc>数据拷贝到应用缓冲区期间进程阻塞</desc>
			<v:textBlock v:margins="rect(4,4,4,4)" v:tabSpace="42.5197"/>
			<v:textRect cx="59.1316" cy="587.495" width="118.27" height="15.5609"/>
			<rect x="0" y="579.715" width="118.263" height="15.5609" class="st4"/>
			<text x="5.13" y="583.75" class="st5" v:langID="2052"><v:paragraph v:horizAlign="1"/><v:tabList/>数据拷贝到应用缓冲<tspan
						x="17.13" dy="1.218em" class="st6">区期间进程阻塞</tspan></text>		</g>
		<g id="shape6-29" v:mID="6" v:groupContext="shape" transform="translate(167.846,-533.534)">
			<title>工作表.6</title>
			<desc>应用进程</desc>
			<v:textBlock v:margins="rect(4,4,4,4)" v:tabSpace="42.5197"/>
			<v:textRect cx="59.1316" cy="587.495" width="118.27" height="15.5609"/>
			<rect x="0" y="579.715" width="118.263" height="15.5609" class="st4"/>
			<text x="35.13" y="591.17" class="st5" v:langID="2052"><v:paragraph v:horizAlign="1"/><v:tabList/>应用进程</text>		</g>
		<g id="shape7-32" v:mID="7" v:groupContext="shape" transform="translate(387.259,-536.061)">
			<title>工作表.7</title>
			<desc>内核</desc>
			<v:textBlock v:margins="rect(4,4,4,4)" v:tabSpace="42.5197"/>
			<v:textRect cx="59.1316" cy="587.495" width="118.27" height="15.5609"/>
			<rect x="0" y="579.715" width="118.263" height="15.5609" class="st4"/>
			<text x="47.13" y="591.17" class="st5" v:langID="2052"><v:paragraph v:horizAlign="1"/><v:tabList/>内核</text>		</g>
		<g id="shape8-35" v:mID="8" v:groupContext="shape" transform="translate(181.349,-501.432)">
			<title>工作表.8</title>
			<desc>建立 SIGIO 的信号处理程序</desc>
			<v:textBlock v:margins="rect(4,4,4,4)" v:tabSpace="42.5197"/>
			<v:textRect cx="45.7639" cy="587.495" width="91.53" height="15.5609"/>
			<rect x="0" y="579.715" width="91.5277" height="15.5609" class="st4"/>
			<text x="4.67" y="583.83" class="st5" v:langID="2052"><v:paragraph v:horizAlign="1"/><v:tabList/>建立<tspan class="st7"> </tspan><tspan
						class="st7">SIGIO </tspan>的<tspan x="9.76" dy="1.223em" class="st6">信号处理程序</tspan></text>		</g>
		<g id="shape10-41" v:mID="10" v:groupContext="shape" v:layerMember="0" transform="translate(272.876,-502.729)">
			<title>动态连接线</title>
			<v:userDefs>
				<v:ud v:nameU="msvThemeColors" v:val="VT0(254):26"/>
			</v:userDefs>
			<path d="M0 588.63 L112.45 587.79" class="st8"/>
		</g>
		<g id="shape11-47" v:mID="11" v:groupContext="shape" transform="translate(269.682,-517.483)">
			<title>工作表.11</title>
			<desc>系统调用 sigaction</desc>
			<v:textBlock v:margins="rect(4,4,4,4)" v:tabSpace="42.5197"/>
			<v:textRect cx="59.1316" cy="587.495" width="118.27" height="15.5609"/>
			<rect x="0" y="579.715" width="118.263" height="15.5609" class="st4"/>
			<text x="35.13" y="583.97" class="st5" v:langID="2052"><v:paragraph v:horizAlign="1"/><v:tabList/>系统调用<tspan
						class="st7"> </tspan><tspan x="29.44" dy="1.206em" class="st7">sigaction</tspan></text>		</g>
		<g id="shape12-52" v:mID="12" v:groupContext="shape" transform="translate(402.281,-357.434)">
			<title>工作表.12</title>
			<desc>数据报准备好</desc>
			<v:textBlock v:margins="rect(4,4,4,4)" v:tabSpace="42.5197"/>
			<v:textRect cx="45.7639" cy="587.495" width="91.53" height="15.5609"/>
			<rect x="0" y="579.715" width="91.5277" height="15.5609" class="st4"/>
			<text x="9.76" y="591.17" class="st5" v:langID="2052"><v:paragraph v:horizAlign="1"/><v:tabList/>数据报准备好</text>		</g>
		<g id="shape13-55" v:mID="13" v:groupContext="shape" transform="translate(185.947,-213.437)">
			<title>工作表.13</title>
			<desc>处理数据报</desc>
			<v:textBlock v:margins="rect(4,4,4,4)" v:tabSpace="42.5197"/>
			<v:textRect cx="45.7639" cy="587.495" width="91.53" height="15.5609"/>
			<rect x="0" y="579.715" width="91.5277" height="15.5609" class="st4"/>
			<text x="15.76" y="591.17" class="st5" v:langID="2052"><v:paragraph v:horizAlign="1"/><v:tabList/>处理数据报</text>		</g>
		<g id="shape14-58" v:mID="14" v:groupContext="shape" transform="translate(402.281,-307.732)">
			<title>工作表.14</title>
			<desc>拷贝数据报</desc>
			<v:textBlock v:margins="rect(4,4,4,4)" v:tabSpace="42.5197"/>
			<v:textRect cx="45.7639" cy="587.495" width="91.53" height="15.5609"/>
			<rect x="0" y="579.715" width="91.5277" height="15.5609" class="st4"/>
			<text x="15.76" y="591.17" class="st5" v:langID="2052"><v:paragraph v:horizAlign="1"/><v:tabList/>拷贝数据报</text>		</g>
		<g id="shape15-61" v:mID="15" v:groupContext="shape" transform="translate(399.279,-234.221)">
			<title>工作表.15</title>
			<desc>拷贝完成</desc>
			<v:textBlock v:margins="rect(4,4,4,4)" v:tabSpace="42.5197"/>
			<v:textRect cx="45.7639" cy="587.495" width="91.53" height="15.5609"/>
			<rect x="0" y="579.715" width="91.5277" height="15.5609" class="st4"/>
			<text x="21.76" y="591.17" class="st5" v:langID="2052"><v:paragraph v:horizAlign="1"/><v:tabList/>拷贝完成</text>		</g>
		<g id="shape17-64" v:mID="17" v:groupContext="shape" v:layerMember="0" transform="translate(453.024,-304.485)">
			<title>动态连接线.17</title>
			<v:userDefs>
				<v:ud v:nameU="msvThemeColors" v:val="VT0(254):26"/>
			</v:userDefs>
			<path d="M-6.85 595.28 L-7.27 645.19" class="st8"/>
		</g>
		<g id="shape18-69" v:mID="18" v:groupContext="shape" v:layerMember="0" transform="translate(399.279,-249.83)">
			<title>动态连接线.18</title>
			<v:userDefs>
				<v:ud v:nameU="msvThemeColors" v:val="VT0(254):26"/>
			</v:userDefs>
			<path d="M0 602.25 L-115.76 602.46" class="st8"/>
		</g>
		<g id="shape19-74" v:mID="19" v:groupContext="shape" transform="translate(279.399,-249.348)">
			<title>工作表.19</title>
			<desc>返回成功指示</desc>
			<v:textBlock v:margins="rect(4,4,4,4)" v:tabSpace="42.5197"/>
			<v:textRect cx="59.1316" cy="587.495" width="118.27" height="15.5609"/>
			<rect x="0" y="579.715" width="118.263" height="15.5609" class="st4"/>
			<text x="23.13" y="591.17" class="st5" v:langID="2052"><v:paragraph v:horizAlign="1"/><v:tabList/>返回成功指示</text>		</g>
		<g id="shape20-77" v:mID="20" v:groupContext="shape" transform="translate(501.528,-426.136)">
			<title>工作表.20</title>
			<desc>等待数据</desc>
			<v:textBlock v:margins="rect(4,4,4,4)" v:tabSpace="42.5197"/>
			<v:textRect cx="45.7639" cy="587.495" width="91.53" height="15.5609"/>
			<rect x="0" y="579.715" width="91.5277" height="15.5609" class="st4"/>
			<text x="21.76" y="591.17" class="st5" v:langID="2052"><v:paragraph v:horizAlign="1"/><v:tabList/>等待数据</text>		</g>
		<g id="shape21-80" v:mID="21" v:groupContext="shape" transform="translate(524.441,-269.771)">
			<title>工作表.21</title>
			<desc>将数据从内核拷贝到用户空间</desc>
			<v:textBlock v:margins="rect(4,4,4,4)" v:tabSpace="42.5197"/>
			<v:textRect cx="45.7639" cy="587.495" width="91.53" height="15.5609"/>
			<rect x="0" y="579.715" width="91.5277" height="15.5609" class="st4"/>
			<text x="9.76" y="576.55" class="st5" v:langID="2052"><v:paragraph v:horizAlign="1"/><v:tabList/>将数据从内核<tspan x="9.76"
						dy="1.2em" class="st6">拷贝到用户空</tspan><tspan x="39.76" dy="1.218em" class="st6">间</tspan></text>		</g>
		<g id="shape22-85" v:mID="22" v:groupContext="shape" transform="translate(279.093,-146.854)">
			<title>工作表.22</title>
			<desc>信号驱动 I/O 模型</desc>
			<v:textBlock v:margins="rect(4,4,4,4)" v:tabSpace="42.5197"/>
			<v:textRect cx="59.1316" cy="587.495" width="118.27" height="15.5609"/>
			<rect x="0" y="579.715" width="118.263" height="15.5609" class="st4"/>
			<text x="6.64" y="591.17" class="st5" v:langID="2052"><v:paragraph v:horizAlign="1"/><v:tabList/>信号驱动<tspan class="st7"> </tspan><tspan
						class="st7">I</tspan><tspan class="st7">/</tspan><tspan class="st7">O </tspan>模型</text>		</g>
		<g id="shape24-92" v:mID="24" v:groupContext="shape" transform="translate(276.299,-367.403)">
			<title>工作表.24</title>
			<desc>递交 SIGIO</desc>
			<v:textBlock v:margins="rect(4,4,4,4)" v:tabSpace="42.5197"/>
			<v:textRect cx="59.1316" cy="587.495" width="118.27" height="15.5609"/>
			<rect x="0" y="579.715" width="118.263" height="15.5609" class="st4"/>
			<text x="27.34" y="591.17" class="st5" v:langID="2052"><v:paragraph v:horizAlign="1"/><v:tabList/>递交<tspan class="st7"> </tspan><tspan
						class="st7">SIGIO</tspan></text>		</g>
		<g id="shape36-97" v:mID="36" v:groupContext="shape" transform="translate(164.413,-339.622)">
			<title>左括号.36</title>
			<v:userDefs>
				<v:ud v:nameU="visVersion" v:prompt="" v:val="VT0(15):26"/>
			</v:userDefs>
			<g id="shadow36-98" v:groupContext="shadow" v:shadowOffsetX="0.3456" v:shadowOffsetY="-1.9728" v:shadowType="1"
					transform="matrix(1,0,0,1,0.3456,1.9728)" class="st1">
				<path d="M22.05 595.28 A29.5271 29.9419 0 0 1 11.03 577.38 L11.03 505.82 L0 505.82 L11.03 505.82 L11.03 434.25 A29.5271
							 29.9419 0 0 1 22.05 416.36" class="st2"/>
			</g>
			<path d="M22.05 595.28 A29.5271 29.9419 0 0 1 11.03 577.38 L11.03 505.82 L0 505.82 L11.03 505.82 L11.03 434.25 A29.5271
						 29.9419 0 0 1 22.05 416.36" class="st3"/>
		</g>
		<g id="shape37-105" v:mID="37" v:groupContext="shape" transform="translate(86.6515,-421.3)">
			<title>工作表.37</title>
			<desc>进程继续执行</desc>
			<v:textBlock v:margins="rect(4,4,4,4)" v:tabSpace="42.5197"/>
			<v:textRect cx="40.2501" cy="587.495" width="80.51" height="15.5609"/>
			<rect x="0" y="579.715" width="80.5003" height="15.5609" class="st4"/>
			<text x="4.25" y="591.17" class="st5" v:langID="2052"><v:paragraph v:horizAlign="1"/><v:tabList/>进程继续执行</text>		</g>
		<g id="shape38-108" v:mID="38" v:groupContext="shape" v:layerMember="0" transform="translate(271.912,-309.094)">
			<title>动态连接线.38</title>
			<v:userDefs>
				<v:ud v:nameU="msvThemeColors" v:val="VT0(254):26"/>
			</v:userDefs>
			<path d="M0 588.63 L112.45 587.79" class="st8"/>
		</g>
		<g id="shape39-113" v:mID="39" v:groupContext="shape" transform="translate(269.805,-322.234)">
			<title>工作表.39</title>
			<desc>系统调用</desc>
			<v:textBlock v:margins="rect(4,4,4,4)" v:tabSpace="42.5197"/>
			<v:textRect cx="59.1316" cy="587.495" width="118.27" height="15.5609"/>
			<rect x="0" y="579.715" width="118.263" height="15.5609" class="st4"/>
			<text x="35.13" y="591.17" class="st5" v:langID="2052"><v:paragraph v:horizAlign="1"/><v:tabList/>系统调用</text>		</g>
		<g id="shape40-116" v:mID="40" v:groupContext="shape" transform="translate(180.385,-309.018)">
			<title>工作表.40</title>
			<desc>recvfrom</desc>
			<v:textBlock v:margins="rect(4,4,4,4)" v:tabSpace="42.5197"/>
			<v:textRect cx="45.7639" cy="587.495" width="91.53" height="15.5609"/>
			<rect x="0" y="579.715" width="91.5277" height="15.5609" class="st4"/>
			<text x="19.37" y="591.1" class="st10" v:langID="2052"><v:paragraph v:horizAlign="1"/><v:tabList/>recvfrom</text>		</g>
		<g id="shape42-119" v:mID="42" v:groupContext="shape" v:layerMember="0" transform="translate(395.54,-371.285)">
			<title>动态连接线.42</title>
			<v:userDefs>
				<v:ud v:nameU="msvThemeColors" v:val="VT0(254):26"/>
			</v:userDefs>
			<path d="M0 602.25 L-115.76 602.46" class="st8"/>
		</g>
		<g id="shape43-124" v:mID="43" v:groupContext="shape" v:layerMember="0" transform="translate(392.063,-508.629)">
			<title>动态连接线.43</title>
			<v:userDefs>
				<v:ud v:nameU="msvThemeColors" v:val="VT0(254):26"/>
			</v:userDefs>
			<path d="M0 602.25 L-115.76 602.46" class="st8"/>
		</g>
		<g id="shape45-129" v:mID="45" v:groupContext="shape" transform="translate(277.996,-485.381)">
			<title>工作表.45</title>
			<desc>返回</desc>
			<v:textBlock v:margins="rect(4,4,4,4)" v:tabSpace="42.5197"/>
			<v:textRect cx="59.1316" cy="587.495" width="118.27" height="15.5609"/>
			<rect x="0" y="579.715" width="118.263" height="15.5609" class="st4"/>
			<text x="47.13" y="591.17" class="st5" v:langID="2052"><v:paragraph v:horizAlign="1"/><v:tabList/>返回</text>		</g>
		<g id="shape46-132" v:mID="46" v:groupContext="shape" transform="translate(185.62,-359.622)">
			<title>工作表.46</title>
			<desc>信号处理程序</desc>
			<v:textBlock v:margins="rect(4,4,4,4)" v:tabSpace="42.5197"/>
			<v:textRect cx="45.7639" cy="587.495" width="91.53" height="15.5609"/>
			<rect x="0" y="579.715" width="91.5277" height="15.5609" class="st4"/>
			<text x="9.76" y="591.17" class="st5" v:langID="2052"><v:paragraph v:horizAlign="1"/><v:tabList/>信号处理程序</text>		</g>
	</g>
</svg>
