<?xml version="1.0" encoding="UTF-8" standalone="no"?>
<!DOCTYPE svg PUBLIC "-//W3C//DTD SVG 1.1//EN" "http://www.w3.org/Graphics/SVG/1.1/DTD/svg11.dtd">
<!-- 由 Microsoft Visio, SVG Export 生成 5.svg Page-1 -->
<svg xmlns="http://www.w3.org/2000/svg" xmlns:xlink="http://www.w3.org/1999/xlink" xmlns:ev="http://www.w3.org/2001/xml-events"
		xmlns:v="http://schemas.microsoft.com/visio/2003/SVGExtensions/" width="11.6929in" height="8.26772in"
		viewBox="0 0 841.89 595.276" xml:space="preserve" color-interpolation-filters="sRGB" class="st11">
	<v:documentProperties v:langID="2052" v:metric="true" v:viewMarkup="false">
		<v:userDefs>
			<v:ud v:nameU="msvSubprocessMaster" v:prompt="" v:val="VT4(Rectangle)"/>
			<v:ud v:nameU="msvNoAutoConnect" v:val="VT0(1):26"/>
			<v:ud v:nameU="msvConvertTheme"/>
		</v:userDefs>
	</v:documentProperties>

	<style type="text/css">
	<![CDATA[
		.st1 {visibility:visible}
		.st2 {fill:none;filter:url(#filter_2);stroke:#5b9bd5;stroke-opacity:0.22}
		.st3 {stroke:#000000;stroke-width:0.25}
		.st4 {fill:none;stroke:none;stroke-width:0.25}
		.st5 {fill:#000000;font-family:微软雅黑;font-size:1.00001em}
		.st6 {fill:#000000;font-family:Consolas;font-size:1.00001em}
		.st7 {marker-end:url(#mrkr4-31);stroke:#000000;stroke-linecap:round;stroke-linejoin:round;stroke-width:0.25}
		.st8 {fill:#000000;fill-opacity:1;stroke:#000000;stroke-opacity:1;stroke-width:0.090252707581227}
		.st9 {font-family:Consolas;font-size:1em}
		.st10 {font-size:1em}
		.st11 {fill:none;fill-rule:evenodd;font-size:12px;overflow:visible;stroke-linecap:square;stroke-miterlimit:3}
	]]>
	</style>

	<defs id="Markers">
		<g id="lend4">
			<path d="M 2 1 L 0 0 L 2 -1 L 2 1 " style="stroke:none"/>
		</g>
		<marker id="mrkr4-31" class="st8" v:arrowType="4" v:arrowSize="2" v:setback="22.16" refX="-22.16" orient="auto"
				markerUnits="strokeWidth" overflow="visible">
			<use xlink:href="#lend4" transform="scale(-11.08,-11.08) "/>
		</marker>
	</defs>
	<defs id="Filters">
		<filter id="filter_2">
			<feGaussianBlur stdDeviation="2"/>
		</filter>
	</defs>
	<g v:mID="0" v:index="1" v:groupContext="foregroundPage">
		<v:userDefs>
			<v:ud v:nameU="msvThemeOrder" v:val="VT0(0):26"/>
		</v:userDefs>
		<title>页-1</title>
		<v:pageProperties v:drawingScale="0.0393701" v:pageScale="0.0393701" v:drawingUnits="24" v:shadowOffsetX="8.50394"
				v:shadowOffsetY="-8.50394"/>
		<v:layer v:name="连接线" v:index="0"/>
		<g id="shape2-1" v:mID="2" v:groupContext="shape" transform="translate(630.457,-290.316)">
			<title>右括号</title>
			<v:userDefs>
				<v:ud v:nameU="visVersion" v:prompt="" v:val="VT0(15):26"/>
			</v:userDefs>
			<g id="shadow2-2" v:groupContext="shadow" v:shadowOffsetX="0.3456" v:shadowOffsetY="-1.9728" v:shadowType="1"
					transform="matrix(1,0,0,1,0.3456,1.9728)" class="st1">
				<path d="M0 595.28 A37.9502 36.8247 -180 0 0 14.17 573.27 L14.17 485.25 L28.35 485.25 L14.17 485.25 L14.17 397.23
							 A37.9502 36.8247 -180 0 0 0 375.23" class="st2"/>
			</g>
			<path d="M0 595.28 A37.9502 36.8247 -180 0 0 14.17 573.27 L14.17 485.25 L28.35 485.25 L14.17 485.25 L14.17 397.23 A37.9502
						 36.8247 -180 0 0 0 375.23" class="st3"/>
		</g>
		<g id="shape3-9" v:mID="3" v:groupContext="shape" transform="translate(630.457,-117.008)">
			<title>右括号.3</title>
			<v:userDefs>
				<v:ud v:nameU="visVersion" v:prompt="" v:val="VT0(15):26"/>
			</v:userDefs>
			<g id="shadow3-10" v:groupContext="shadow" v:shadowOffsetX="0.3456" v:shadowOffsetY="-1.9728" v:shadowType="1"
					transform="matrix(1,0,0,1,0.3456,1.9728)" class="st1">
				<path d="M0 595.28 A37.9502 27.5657 -180 0 0 14.17 578.8 L14.17 512.92 L28.35 512.92 L14.17 512.92 L14.17 447.03
							 A37.9502 27.5657 -180 0 0 0 430.56" class="st2"/>
			</g>
			<path d="M0 595.28 A37.9502 27.5657 -180 0 0 14.17 578.8 L14.17 512.92 L28.35 512.92 L14.17 512.92 L14.17 447.03 A37.9502
						 27.5657 -180 0 0 0 430.56" class="st3"/>
		</g>
		<g id="shape6-17" v:mID="6" v:groupContext="shape" transform="translate(201.585,-528.374)">
			<title>工作表.6</title>
			<desc>应用进程</desc>
			<v:textBlock v:margins="rect(4,4,4,4)" v:tabSpace="42.5197"/>
			<v:textRect cx="76" cy="585.276" width="152" height="20"/>
			<rect x="0" y="575.276" width="152" height="20" class="st4"/>
			<text x="52" y="588.95" class="st5" v:langID="2052"><v:paragraph v:horizAlign="1"/><v:tabList/>应用进程</text>		</g>
		<g id="shape7-20" v:mID="7" v:groupContext="shape" transform="translate(483.591,-531.622)">
			<title>工作表.7</title>
			<desc>内核</desc>
			<v:textBlock v:margins="rect(4,4,4,4)" v:tabSpace="42.5197"/>
			<v:textRect cx="76" cy="585.276" width="152" height="20"/>
			<rect x="0" y="575.276" width="152" height="20" class="st4"/>
			<text x="64" y="588.95" class="st5" v:langID="2052"><v:paragraph v:horizAlign="1"/><v:tabList/>内核</text>		</g>
		<g id="shape8-23" v:mID="8" v:groupContext="shape" transform="translate(218.94,-487.114)">
			<title>工作表.8</title>
			<desc>aio_read</desc>
			<v:textBlock v:margins="rect(4,4,4,4)" v:tabSpace="42.5197"/>
			<v:textRect cx="58.8189" cy="585.276" width="117.64" height="20"/>
			<rect x="0" y="575.276" width="117.638" height="20" class="st4"/>
			<text x="32.43" y="588.88" class="st6" v:langID="2052"><v:paragraph v:horizAlign="1"/><v:tabList/>aio_read</text>		</g>
		<g id="shape10-26" v:mID="10" v:groupContext="shape" v:layerMember="0" transform="translate(336.577,-490.803)">
			<title>动态连接线</title>
			<v:userDefs>
				<v:ud v:nameU="msvThemeColors" v:val="VT0(254):26"/>
			</v:userDefs>
			<path d="M0 588.76 L146.11 587.66" class="st7"/>
		</g>
		<g id="shape11-32" v:mID="11" v:groupContext="shape" transform="translate(332.472,-507.744)">
			<title>工作表.11</title>
			<desc>系统调用 sigaction</desc>
			<v:textBlock v:margins="rect(4,4,4,4)" v:tabSpace="42.5197"/>
			<v:textRect cx="76" cy="585.276" width="152" height="20"/>
			<rect x="0" y="575.276" width="152" height="20" class="st4"/>
			<text x="19.01" y="588.95" class="st5" v:langID="2052"><v:paragraph v:horizAlign="1"/><v:tabList/>系统调用<tspan
						class="st9"> </tspan><tspan class="st9">sigaction</tspan></text>		</g>
		<g id="shape12-37" v:mID="12" v:groupContext="shape" transform="translate(502.898,-302.039)">
			<title>工作表.12</title>
			<desc>数据报准备好</desc>
			<v:textBlock v:margins="rect(4,4,4,4)" v:tabSpace="42.5197"/>
			<v:textRect cx="58.8189" cy="585.276" width="117.64" height="20"/>
			<rect x="0" y="575.276" width="117.638" height="20" class="st4"/>
			<text x="22.82" y="588.95" class="st5" v:langID="2052"><v:paragraph v:horizAlign="1"/><v:tabList/>数据报准备好</text>		</g>
		<g id="shape13-40" v:mID="13" v:groupContext="shape" transform="translate(225.244,-144.772)">
			<title>工作表.13</title>
			<desc>信号处理程序处理数据报</desc>
			<v:textBlock v:margins="rect(4,4,4,4)" v:tabSpace="42.5197"/>
			<v:textRect cx="58.8189" cy="585.276" width="117.64" height="20"/>
			<rect x="0" y="575.276" width="117.638" height="20" class="st4"/>
			<text x="4.82" y="581.54" class="st5" v:langID="2052"><v:paragraph v:horizAlign="1"/><v:tabList/>信号处理程序处理数<tspan
						x="46.82" dy="1.218em" class="st10">据报</tspan></text>		</g>
		<g id="shape14-44" v:mID="14" v:groupContext="shape" transform="translate(504,-261.727)">
			<title>工作表.14</title>
			<desc>拷贝数据报</desc>
			<v:textBlock v:margins="rect(4,4,4,4)" v:tabSpace="42.5197"/>
			<v:textRect cx="58.8189" cy="585.276" width="117.64" height="20"/>
			<rect x="0" y="575.276" width="117.638" height="20" class="st4"/>
			<text x="28.82" y="588.95" class="st5" v:langID="2052"><v:paragraph v:horizAlign="1"/><v:tabList/>拷贝数据报</text>		</g>
		<g id="shape15-47" v:mID="15" v:groupContext="shape" transform="translate(499.039,-143.676)">
			<title>工作表.15</title>
			<desc>拷贝完成</desc>
			<v:textBlock v:margins="rect(4,4,4,4)" v:tabSpace="42.5197"/>
			<v:textRect cx="58.8189" cy="585.276" width="117.64" height="20"/>
			<rect x="0" y="575.276" width="117.638" height="20" class="st4"/>
			<text x="34.82" y="588.95" class="st5" v:langID="2052"><v:paragraph v:horizAlign="1"/><v:tabList/>拷贝完成</text>		</g>
		<g id="shape17-50" v:mID="17" v:groupContext="shape" v:layerMember="0" transform="translate(549.969,-253.984)">
			<title>动态连接线.17</title>
			<v:userDefs>
				<v:ud v:nameU="msvThemeColors" v:val="VT0(254):26"/>
			</v:userDefs>
			<path d="M6.47 595.28 L7.62 675.18" class="st7"/>
		</g>
		<g id="shape18-55" v:mID="18" v:groupContext="shape" v:layerMember="0" transform="translate(499.039,-161.717)">
			<title>动态连接线.18</title>
			<v:userDefs>
				<v:ud v:nameU="msvThemeColors" v:val="VT0(254):26"/>
			</v:userDefs>
			<path d="M0 602.22 L-150.37 602.49" class="st7"/>
		</g>
		<g id="shape19-60" v:mID="19" v:groupContext="shape" transform="translate(344.961,-163.118)">
			<title>工作表.19</title>
			<desc>递交在 aio_read 中指定的信号</desc>
			<v:textBlock v:margins="rect(4,4,4,4)" v:tabSpace="42.5197"/>
			<v:textRect cx="76" cy="585.276" width="152" height="20"/>
			<rect x="0" y="575.276" width="152" height="20" class="st4"/>
			<text x="7.01" y="581.61" class="st5" v:langID="2052"><v:paragraph v:horizAlign="1"/><v:tabList/>递交在<tspan class="st9"> </tspan><tspan
						class="st9">aio</tspan><tspan class="st9">_</tspan><tspan class="st9">read </tspan>中指定<tspan x="58"
						dy="1.223em" class="st10">的信号</tspan></text>		</g>
		<g id="shape20-68" v:mID="20" v:groupContext="shape" transform="translate(630.457,-390.339)">
			<title>工作表.20</title>
			<desc>等待数据</desc>
			<v:textBlock v:margins="rect(4,4,4,4)" v:tabSpace="42.5197"/>
			<v:textRect cx="58.8189" cy="585.276" width="117.64" height="20"/>
			<rect x="0" y="575.276" width="117.638" height="20" class="st4"/>
			<text x="34.82" y="588.95" class="st5" v:langID="2052"><v:paragraph v:horizAlign="1"/><v:tabList/>等待数据</text>		</g>
		<g id="shape21-71" v:mID="21" v:groupContext="shape" transform="translate(659.906,-189.367)">
			<title>工作表.21</title>
			<desc>将数据从内核拷贝到用户空间</desc>
			<v:textBlock v:margins="rect(4,4,4,4)" v:tabSpace="42.5197"/>
			<v:textRect cx="58.8189" cy="585.276" width="117.64" height="20"/>
			<rect x="0" y="575.276" width="117.638" height="20" class="st4"/>
			<text x="4.82" y="581.54" class="st5" v:langID="2052"><v:paragraph v:horizAlign="1"/><v:tabList/>将数据从内核拷贝到<tspan
						x="34.82" dy="1.218em" class="st10">用户空间</tspan></text>		</g>
		<g id="shape22-75" v:mID="22" v:groupContext="shape" transform="translate(344.567,-31.3858)">
			<title>工作表.22</title>
			<desc>异步 I/O 模型</desc>
			<v:textBlock v:margins="rect(4,4,4,4)" v:tabSpace="42.5197"/>
			<v:textRect cx="76" cy="585.276" width="152" height="20"/>
			<rect x="0" y="575.276" width="152" height="20" class="st4"/>
			<text x="35.51" y="588.95" class="st5" v:langID="2052"><v:paragraph v:horizAlign="1"/><v:tabList/>异步<tspan class="st9"> </tspan><tspan
						class="st9">I</tspan><tspan class="st9">/</tspan><tspan class="st9">O </tspan>模型</text>		</g>
		<g id="shape36-82" v:mID="36" v:groupContext="shape" transform="translate(197.173,-126.425)">
			<title>左括号.36</title>
			<v:userDefs>
				<v:ud v:nameU="visVersion" v:prompt="" v:val="VT0(15):26"/>
			</v:userDefs>
			<g id="shadow36-83" v:groupContext="shadow" v:shadowOffsetX="0.3456" v:shadowOffsetY="-1.9728" v:shadowType="1"
					transform="matrix(1,0,0,1,0.3456,1.9728)" class="st1">
				<path d="M28.35 595.28 A37.9502 64.041 0 0 1 14.17 557.01 L14.17 403.94 L0 403.94 L14.17 403.94 L14.17 250.87 A37.9502
							 64.041 0 0 1 28.35 212.6" class="st2"/>
			</g>
			<path d="M28.35 595.28 A37.9502 64.041 0 0 1 14.17 557.01 L14.17 403.94 L0 403.94 L14.17 403.94 L14.17 250.87 A37.9502
						 64.041 0 0 1 28.35 212.6" class="st3"/>
		</g>
		<g id="shape37-90" v:mID="37" v:groupContext="shape" transform="translate(92.6181,-307.764)">
			<title>工作表.37</title>
			<desc>进程继续执行</desc>
			<v:textBlock v:margins="rect(4,4,4,4)" v:tabSpace="42.5197"/>
			<v:textRect cx="51.7323" cy="585.276" width="103.47" height="20"/>
			<rect x="0" y="575.276" width="103.465" height="20" class="st4"/>
			<text x="15.73" y="588.95" class="st5" v:langID="2052"><v:paragraph v:horizAlign="1"/><v:tabList/>进程继续执行</text>		</g>
		<g id="shape43-93" v:mID="43" v:groupContext="shape" v:layerMember="0" transform="translate(489.764,-494.342)">
			<title>动态连接线.43</title>
			<v:userDefs>
				<v:ud v:nameU="msvThemeColors" v:val="VT0(254):26"/>
			</v:userDefs>
			<path d="M0 602.22 L-150.37 602.49" class="st7"/>
		</g>
		<g id="shape45-98" v:mID="45" v:groupContext="shape" transform="translate(343.157,-466.484)">
			<title>工作表.45</title>
			<desc>返回</desc>
			<v:textBlock v:margins="rect(4,4,4,4)" v:tabSpace="42.5197"/>
			<v:textRect cx="76" cy="585.276" width="152" height="20"/>
			<rect x="0" y="575.276" width="152" height="20" class="st4"/>
			<text x="64" y="588.95" class="st5" v:langID="2052"><v:paragraph v:horizAlign="1"/><v:tabList/>返回</text>		</g>
		<g id="shape47-101" v:mID="47" v:groupContext="shape" transform="translate(501.738,-480.756)">
			<title>工作表.47</title>
			<desc>无数据报准备好</desc>
			<v:textBlock v:margins="rect(4,4,4,4)" v:tabSpace="42.5197"/>
			<v:textRect cx="58.8189" cy="585.276" width="117.64" height="20"/>
			<rect x="0" y="575.276" width="117.638" height="20" class="st4"/>
			<text x="16.82" y="588.95" class="st5" v:langID="2052"><v:paragraph v:horizAlign="1"/><v:tabList/>无数据报准备好</text>		</g>
		<g id="shape48-104" v:mID="48" v:groupContext="shape" v:layerMember="0" transform="translate(550.346,-466.583)">
			<title>动态连接线.48</title>
			<v:userDefs>
				<v:ud v:nameU="msvThemeColors" v:val="VT0(254):26"/>
			</v:userDefs>
			<path d="M6.66 595.28 L7.48 725.8" class="st7"/>
		</g>
	</g>
</svg>
